<?xml version="1.0" encoding="UTF-8"?>
<svg id="Capa_1" data-name="Capa 1" xmlns="http://www.w3.org/2000/svg" viewBox="0 0 856.94 941.35">
  <defs>
    <style>
      .cls-1 {
        fill: #842211;
      }

      .cls-2 {
        fill: #832111;
      }

      .cls-3 {
        fill: #f9eac4;
      }

      .cls-4 {
        fill: #411907;
      }

      .cls-5 {
        fill: #441907;
      }

      .cls-6 {
        fill: #fdfbf5;
      }

      .cls-7 {
        fill: #a39999;
      }

      .cls-8 {
        fill: #431907;
      }

      .cls-9 {
        fill: #9c2e18;
      }

      .cls-10 {
        fill: silver;
      }

      .cls-11 {
        fill: #421a07;
      }

      .cls-12 {
        fill: #f7e2b5;
      }

      .cls-13 {
        fill: #421907;
      }

      .cls-14 {
        fill: #ededed;
      }

      .cls-15 {
        fill: #9c2f18;
      }

      .cls-16 {
        fill: #842111;
      }
    </style>
  </defs>
  <g>
    <path class="cls-5" d="M94.86,938.19c-.13-.7-1.6-1.93-1.92-3.58-2.42-12.41-1.49-23.54-6.05-35.94-10.08-27.37-36.03-45.23-64.65-48.35-7.16-.78-19.68,2.65-21.31-7.69-2.97-18.83,2.5-43.62-.86-62.95C1.47,555.84.97,331.59.24,107.85c1.63-4.44-.51-10.55,1.14-14.64,1.77-4.37,11.06-1.67,14.92-2,41.87-3.59,70.54-28.85,76.43-70.65.92-6.49-2.25-17.92,6.68-19.32C105.84.24,118.22.25,125.36.1c21.76-.45,43.95.81,65.84.71C380.81.02,570.88-.09,760.34,1.22c6.92,1.82,5.54,21.18,6.6,27.39,1.63,9.5,6.4,20.26,11.69,28.31,16.12,24.54,44.2,35.57,73.2,33.74,2.15,1.8,4.12,4.56,4.76,7.29.56,2.37.25,11.31.32,14.69.16,7.74-.73,15.57-.68,23.21,1.71,236.26-.51,471.64.56,707.78-1.31,2.92-2.08,6.62-5.67,7.37-2.98.62-4.71-.72-6.77-.62-26.27,1.3-47.65,8.36-63.92,29.89-12.21,16.16-15.61,33.98-16.03,53.97-1.18,3.78-4.73,4.05-7.55,5.95-224.76.71-443.37.87-655.82.51-3.54.23-5.6-.61-6.18-2.51Z"/>
    <path class="cls-6" d="M756.86,940.19c-218.15,2.36-437.09.27-655.55,1.05-1.31-.08-6.98-.65-7.46-1.06-.57-.49,1.02-1.88,1-1.99,2,2.05,4.85,1.91,7.46,2.04,42.84,2.15,89.84-.01,132.98,0,173.98.03,347.7-.38,521.56-.04Z"/>
    <path class="cls-9" d="M747.81,19.24c2.83,42.79,32.96,77.63,75.02,86.49,4.07.86,11.67.74,14.4,1.6,1.18.37,1.58,1.2,1.64,2.36v723.51s-19.48,1.51-19.48,1.51c-40.34,11.34-70.65,44.52-71.51,87.49l-638.05-.42c-1.85-12.03-3.91-23.05-8.78-34.25-14.51-33.42-47.57-52.53-83.17-55.34l1.01-723.98c10.49-1.14,21.04-2.76,30.95-6.55,24.45-9.35,47.48-32.37,55.55-57.45,2.66-8.27,3.51-17.54,5.51-26l636.93,1.05Z"/>
    <path class="cls-8" d="M732.45,839.77c-5.22,6.38-10.39,14.17-13.74,21.76-1.82,4.11-4.99,17.26-6.77,19.23-2.23,2.47-11.08,2.15-14.59,3.41-165.65,1.09-331.57-1.37-497.04-.03-14.88.12-32.44,2.55-46.98,1.55-1.39-.1-7.17-1.69-7.98-2.48-1.31-1.27-4.29-13.58-5.45-16.55-9.44-24.28-32.43-48.99-56.36-59.64-6.79-3.02-17.98-3-21.14-10.86-1.48-3.69-.94-33.78-.98-40.46-1.03-203.65,1.57-407.3.46-610.98,1.5-7.79,16.27-9.44,22.66-12.34,22.03-10,46.16-32.12,55.19-54.81,1.65-4.14,3.85-17.39,6.54-19.46,1.02-.79,10.8-1.81,13.05-1.95,29.4-1.8,63.14-.32,93.04-.4,151.26-.4,302.54.99,453.91.53,8.79,2.18,5.99,8.8,8.1,15.9,6.74,22.7,33.75,48.32,54.8,58.2,5.61,2.63,19.75,6.08,23.13,9.87,3.49,3.92,2.9,12.03,3.01,17.43,2.52,129.69-.49,260.2-.52,390.01-.02,77.52-.27,155.38.03,233.03.02,4.77.76,3.57.1,8.98-.58,4.79.98,7.64-3.7,11.32-6.45,3.27-13.8,4.6-20.33,7.67-13.3,6.25-29.16,19.72-38.43,31.07Z"/>
    <path class="cls-15" d="M699.77,70.29c10.54,39.65,44.38,66.7,81.14,81.57l-.2,637.18c-37.35,12.51-69.64,42.85-80.42,81.2l-543.46-.52c-12.03-33.85-35.43-59.59-67.6-75.4-2.9-1.42-12.91-3.89-13.36-6.62l.13-637.41c36.86-11.94,70.83-41.91,80.88-80.13l542.9.11Z"/>
    <path class="cls-13" d="M688.74,86.31c3.4,7.78,7.58,17.22,12.29,24.21,10.19,15.13,27.75,30.33,43.54,39.46,5.67,3.28,12.34,5.89,18.29,8.71l1.99,3.01-.47,617.48c-1.4,2.88-18.1,9.37-22.2,11.8-14.06,8.33-31.41,25.78-40.72,39.28-4.06,5.88-7.93,15.77-12.11,20.89-.85,1.04-1.5,1.93-2.99,2.01l-518.49.55c-.99-.5-8.81-16.65-10.57-19.45-13.66-21.76-31.62-36.72-53.74-49.26-3.16-1.79-9.82-3.06-10.66-7.34l.47-617.5c32.43-15.34,60.05-38.18,73.65-72.35,3.38-4.31,14.99-1.62,20.32-1.58,141.36,1.05,282.94-.19,424.08-.07,25.69.02,51.69-.36,77.34.14Z"/>
    <path class="cls-16" d="M682.71,97.35c12.89,32.36,41.83,56.02,73.22,69.45l-.56,605.39c-7.63,4.9-16.08,8.3-23.64,13.36-19.03,12.75-35.99,31.01-45.94,51.59l-1.92-.97-1.67,6.05c-169.84-.4-339.63.68-509.38-.5-6.06-12.56-14.36-25.91-23.93-36.07-5.62-5.97-15.94-14.61-22.72-19.28-6.05-4.17-16.81-8.04-21.28-11.72-1.04-.85-1.94-1.49-2.01-2.99l.14-605.32c31.52-13.73,58.09-38.27,71.45-70.22,7.66.89,15.27.06,22.87.09,151.99.66,304.74.38,456.95.82,9.29.03,18.79-1.99,28.41.31Z"/>
    <path class="cls-3" d="M409.73,422.65c.52-2.73.99-2.41,1.03-2.65.41-2.25-2.32-8.04-2.02-8.35,3.67,2.16,2.92-.92,3.41-.92.62,0,8.28,1.61,8.58,1.93,2.43,2.52-6.85,3.02-7.99,1.99,1.06,3.54.54,6.87-3,8Z"/>
  </g>
  <g>
    <path class="cls-4" d="M194.69,581.77c-40.14-30.04-32.97-72.22-33.28-116.11-.23-32.47-.61-64.04-.05-95.97.12-6.7-1.97-8.35,2.11-15.89,9.71-17.92,34.05-12.42,51.39-12.62,87.61-.99,176.11-.11,263.98,0,51.42.07,103.67-2.82,154.5,2.44,44.45,14.73,61.33,45.57,62.42,91.01.88,36.84-1.02,74.91-1.06,111.83-.03,26.72,9.2,51.89-28.83,53.72-3.36.16-6.49-.92-9.04-.85-80.08,1.97-159.66-.04-239.89-.08-57.39-.03-117.96,3.47-175.11.32-14.71-.81-35.39-9.02-47.13-17.82Z"/>
    <path class="cls-7" d="M195.83,350.71c139.16-2.87,278.82,3.1,418.04.4,86.33,8.16,71.57,90.48,71.39,153.54-.06,19.15,1.2,38.73.69,57.83-.46,17.04-.34,26.36-20.08,27.71H250.78c-50.24-2.45-79.17-33.69-80.5-83.51-.87-32.73,1.27-67,1.13-100.04-.05-12.77-2.46-28.41-.98-40.89,1.76-14.84,13.41-14.8,25.39-15.05Z"/>
    <path class="cls-13" d="M540.83,360.71c23.42.09,51.2-1.3,74.04.4,36.34,2.71,59.09,31.26,61.51,66.49,3.09,45.08-2.43,93.63,0,139.08-.45,5.02-1.48,10.15-6.29,12.71-140.25,1.73-280.89.32-421.29.71-55.52-7.03-67.6-38.91-68.47-89.38-.39-22.49.76-45.92.8-68.08.03-16.27-2.42-37.1-.8-52.93.32-3.17,1.29-6.19,4.03-8.05,118.79-.13,237.71-1.41,356.48-.96Z"/>
    <path class="cls-1" d="M190.33,372.64c.48-1.44,3.5-1.66,4.87-1.88,9.93-1.57,25.95.33,36.66.3,107.5-.3,215.62-.14,322.98.16,47.76.13,106.91-10.78,111.52,56.38,2.99,43.58-1.06,91.79-.09,136.08.03,1.41,1.84,6.46-.45,6.46H243.33c-.23,0,1.4-.36-3-1.46-24.98-6.25-50-25.8-50-54.04v-142Z"/>
    <path class="cls-4" d="M292.99,502.8c3-3.01,4.04-8.96,4.38-13.12.86-10.82,1.67-61.44-.61-69.46-.99-3.51-5.77-8.38-6.38-11.61-1.92-10.19,3.68-20.49,14.41-21.5,8.09-.76,27.08-.9,34.95.12,12.1,1.57,16.49,12.42,13.63,23.46-.75,2.88-4.92,8.93-4.97,9.88-2.18,40.45,15.18,105.8-32.72,126.44-41.69,17.96-102.28,3.62-106.39-48.32-1.99-25.07,1.25-52.76.08-78.08-.56-4.16-4.52-6.74-5.09-10.91-1.27-9.25-.52-17.49,9.07-21.02,5.91-2.17,36.32-2.34,43.47-1.53,11.54,1.32,17.44,15.95,13.22,26.22-.98,2.39-4.45,5-5.18,6.82-1.24,3.1-.81,50.38-.57,57.52.16,4.96.33,14.31,1.26,18.71,2.21,10.43,20.73,13.12,27.43,6.39Z"/>
    <path class="cls-4" d="M443.6,523.39c.14-.31,4.65-4.6,4.72-4.94.24-1.16-.93-3.62,0-5.3l-38.02.49c-1.39,1.87-3.06,4.71-3.09,7.05-.02,1.64,1.58,1.24,1.99,2.26,4.06,10.15,3.95,24.78-9.45,27.13-5,.88-35.92,1-40.71-.17-11.94-2.92-16.52-18.61-9.74-28.28,3.69-5.26,5.53-4.74,8.75-12.25,12.37-28.9,19.94-61.86,31.83-91.19,2.09-4.61-2.13-5.98-3.21-9.7-2.25-7.73,3.38-17.88,10.85-20.74l62.11-.32c12.68,4.98,15.5,16.88,10.95,29,11.62,29.67,19.04,64.64,31.25,93.67,2.28,5.43,8.26,9.89,9.81,15.19,3.21,11.06-.37,20.3-11.08,24.66-12.07-.83-24.84.74-36.82.17-8.13-.39-17.24-1.76-19.97-10.96-.68-2.31-.97-13.97-.18-15.8Z"/>
    <path class="cls-4" d="M647.99,513.83c-30.61,62.76-124.4,49.26-142.15-21.69-15.84-63.34,36.45-126.87,102.66-101.66,46.38,17.65,59.69,81.94,39.49,123.35Z"/>
    <path class="cls-10" d="M292.1,514.81c5.87-4.82,9.42-6.89,11.75-14.64,5.32-17.7,1.74-46.43,1.58-65.42-.04-4.84,1.55-10.49.9-16.1s-11.29-17.36-4.01-21.01c1.84-.92,36.33-.89,38,.02,1.51.82,3.28,4.96,3.02,6.89-.45,3.28-4.51,6.75-5.03,11.07-3.57,29.4,7.86,80.84-9.54,105.46-15.95,22.58-51.73,24.74-76.19,17.32-53.17-16.13-28.57-81.96-34.2-122.8-.58-4.22-10.54-14.17-2.02-17.93,2.17-.96,33.68-1.06,37.41-.46,2.63.42,4.52,1.96,5.65,4.37,2.77,5.88-2.27,6.73-4.3,10.85-3.15,6.41-1.02,28.67-1.04,37.16-.04,15.39-4.23,47.24,6.24,59.07,6.8,7.68,22.48,8.57,31.79,6.15Z"/>
    <path class="cls-10" d="M458.04,398.45c4.94,3.9,3.44,9.41-.56,13.42,10.48,35.6,24.01,70.74,35.34,106.28,2.88,6.21,9.15,5.35,8.57,13.47-.39,5.47-3.99,6.35-8.67,7.49l-35.68-1.18c-11.57-7.05.43-14.33.86-18.28.18-1.68-3.69-15.64-4.97-16.6-2.34-1.77-22.47-1.87-27.02-1.92-1.91-.02-3.9,1.07-6.07,1.09-2.87.03-18.97-1.88-20.33.09-.07,5.63-4.09,12.11-4.23,17.39-.11,4.4,9.61,13.63,1.44,18.32-3.73,2.14-4.94.28-7.93.37-6.39.18-25.9,1.23-30.41-1.79-4.22-2.83-1.85-10.57.97-13.95,3.88-4.66,4.07-3.6,6.74-10.26,12.85-32.09,21.93-65.8,33.85-98.24.7-4.79-8.35-15.83,2.88-17,12-1.26,38.91-1.32,51.04,0,1.58.17,2.89.28,4.19,1.31Z"/>
    <path class="cls-10" d="M536.71,526.75c-52.52-45.88-14.73-153.88,63.38-128.87,64.81,20.75,60.37,136.14-10.37,143.16-18.77,1.86-38.53-1.64-53.01-14.29Z"/>
    <path class="cls-11" d="M428.31,429.15c2.09,8.35,6.28,16.7,8.73,24.78.97,3.18,5.75,20.84,5.35,22.56-.27,1.16-3.45,1.55-4.55,1.65-4.1.37-21.75.71-24.8-.2-.87-.26-1.86-1.01-2.26-1.81-1.57-3.14,6.72-20.63,6.25-25.79,1.48-1.81,7.27-24.11,11.29-21.19Z"/>
    <path class="cls-13" d="M581.86,420.65c32.04,2.11,33.49,56.58,23.65,78.19-6.36,13.97-21.54,21.27-36.39,16-28.87-10.25-28.94-96.93,12.73-94.19Z"/>
    <g>
      <path class="cls-14" d="M225.33,461.14c4.79-.42,2.29.49,2.37,3.34.03.99.78,2.12.69,3.04s-3.23.09-2.06,2.62l2.98-.99c.18.2-.78,4.61-1.06,5.24-.51,1.14-1.86.69-1.92.78-.37.54,2.03,1.9,2.02,3.47s-2.04,2.37-2.07,4c-.01.61,1.57.41,1.76.74.37.63.78,8.91-1.72,8.27.65,1.99,3.12-.19,3.01,1.01-.22,2.36-1.23,2.17-3,1.49,1.78,4.56,3.67,3.41.99,9-1.91-5.37-3.9-7.06-2.62-12.81.05-.2,1.27-.1,1.37-.69.68-3.93-1.79-3.77-1.82-4.1-.17-1.95,2.64-3.71-.92-3.41,5.16-3.48,1.79-3.22,1.43-6.91-.26-2.7.67-9.99.56-14.07Z"/>
      <path class="cls-14" d="M314.31,434.17c.14.09.65,2.32,2.02,2.71l.07,23.58-4.07,1.69c-.58-4.25,3.21-3.79.98-7.48l2.01.5c1.14-1.29-4.03-5.16-4-5.51.06-.99,1.46-.08,1.82-.95.72-1.73-2.09-6.53,1.19-8.05-3.65-.79-.3-3.15-2.01-5.98-.11-.86,1.73-.66,1.99-.49Z"/>
      <path class="cls-14" d="M227.33,435.14c-2.21-.76-3.62,1.8-3-3.5,3.5.87,1.96-.42.49-2.51-1.34-1.91,1.11-.25,1.52-1.5.89-2.78-1.98,0-2.02-1-.08-1.74.15-4.85.27-6.75.07-1.08,1.32-2.13,1.33-3.26,0-.44-2.89-5.33,1.9-5.49.33-.01.52,5.69.56,6.49.16,3.16-.64,8.09-.6,10.59.02,1.57,1.41,3.48,1.48,4.5.01.18-.92.52-1.93,2.43Z"/>
      <path class="cls-14" d="M227.33,435.14c1.28.44,1.63,6.53-1,6.49,4.59,3.77-1.05,1.4-.99,5.5l3.99-.99c-2.33,3.92-.12,9.53-.92,13.39-.27,1.3-3.02-.18-3.08,1.6,0-.09-.97-.45-.79-1.29.38-1.82,3.95-2.5-1.2-3.73v-.97c5.13.32-1.78-6.69,2.99-6.03v-.97c-2.86.34-1.94-1.43-1.96-3.5-.06-4.36,1.31-6.36,2.97-9.52Z"/>
      <path class="cls-14" d="M285.34,524.13l-.02,3.02c-3.64-2.1-11.47-.66-6.49-6l1,3.01c1-4.57,2.84.03,4.55-.42,1.2-.32,2.42-2.14,3.71-2.44,1.93-.45,2.94.73,3.81.75.32,0,.37-4.4,3.93.09l.51-3,2.97,2.5c.02,1.16-12.4,5.13-13.97,2.49Z"/>
      <path class="cls-14" d="M316.33,494.14c-.18,2.24-.14,5.14-2.99,5.01l1.99,1.48c-2.62,4.23-1,10.15-7.99,8.51-.91-3.02,3.28-4.41,3.76-5.17.33-.52,1.27-9.72,2.24-11.82,1.11-2.13,2.11-1.46,3,2Z"/>
      <path class="cls-14" d="M320.33,404.15c2.33,2.43-4.95,5.12-6.51,6.01l.5-3.01c-2.94.3-5.22.07-6.99-2.51,1.64-1.07,12.54-.96,13-.49Z"/>
      <path class="cls-14" d="M316.33,416.14c-.34.34-1.83-.57-2.01.51-.2,1.15,3.17-.15,3,.98-.26,1.35-2.64,5.48-2.63,6.05.01.7,2.62,2.6,1.64,3.46-.78.7-3.2-.01-3.74-1.64-1.1-3.31,1.7-3.55,1.68-3.79-.19-2.81-4.56-8.44.05-10.57-.68,1.56,2.2,4.8,2.01,4.99Z"/>
      <path class="cls-14" d="M227.69,408.54c-.36.34-.76,3.37-2.36,1.6-.43-.47,1.35-2.69,1-2.98l-4.99,1-1.01-4c2.41,1.51,10.99-1.1,10,2.48-.75.83-1.83,1.15-2.63,1.9Z"/>
      <path class="cls-14" d="M317.33,465.15c.27.2-1.24,5.79-3.01,5.49l3,.99c-1.83,1.49-.63,6.23-3.98,5.51-.19-1.89-.48-15.39,3.99-11.98Z"/>
      <path class="cls-14" d="M227.33,503.14l1.97-1c1.6,1.71,1.02,7.5,1.23,7.85.43.7,3.57.59,2.79,3.15-6.06-1.6-4.55-5.94-5.99-10Z"/>
      <path class="cls-14" d="M313.33,492.14c1.42-3.07,1.4-1.43,1.99-2.02.74-.75-6.21-2.71.01-5.96-1.43.13-4.01-1.69-2.97-3,.14-.18,1.43.18,1.79-.14.55-.5-2.45-3.41.67-2.87,1.86.75,2.91,4.81,2.46,6.36-.23.78-1.84.58-1.83,1.07.06,2.46,1.16,5.11.88,8.57l-3-2Z"/>
      <path class="cls-14" d="M403.33,436.14c-.5,1.81-.88,5.73-1.02,6-.06.11-1.63-1.14-2.52-.03-.44.55-2.94,12.65-3.49,13.04-4.85-2.92.74,2.92,0,3.95-.1.14-1.86.26-2.91,1.67-1.44,1.93.53,6.69-3.05,6.4-.41,1.81,1.71.63,1.99.99.2.25-2.87,3.65-1.01,5.99-2.5-.98-3.5-4.94-2.99-7.3.15-.69,1.67-.68,1.91-1.47,1.33-4.3,2.06-9.95,3.6-14.21.66-1.82,4.47-12.23,4.85-12.79.1-.14,2.47-2.15,2.63-2.23.61-2.63,1.31-2.6,2,0Z"/>
      <path class="cls-14" d="M432.17,484.4c.48.37-.49,2.21,1.15,1.74-.56-3.34,3.23-.91,5.5-2-.48,5.32,1.52.07,2.94-.07,1.16-.12,5.2-.77,4.56,1.57-1.53,1.74-2.23,2.51-2-.48h-.98c-.31,4.48-5.71,1.87-7.43,2-.66.05-.47,1.69-1.23,1.93-.91.29-6.46-.33-7.35-1.42,1.42-1.2,2.31-5.18,4.83-3.25Z"/>
      <path class="cls-14" d="M406.33,415.14c3.92,2.67,1,5.45.48,8.04-.79,3.95-2.23,8.43-3.48,12.96-.59.13-1.62-.19-2,0-3.03-6.17,1.81-3.72,1.99-4,.25-.38-.66-1.99-.48-3.12.36-2.18,3.21-2.34-.51-3.37,2.83-2,3.32-6.92,4-10.5Z"/>
      <path class="cls-14" d="M465.26,505.24c.21.2-.21,1.73.37,2.59.4.6,1.51-.09,1.71.83.49,2.31-1.31,1.15-1.73,1.65-.25.3.51,1.43.31,2.12-.31,1.08-1.26,1.85-1.33,3.03-.2,3.81,4.37,3.4,1.24,5.67-1.93-.11-4.08-12.06-2.49-14.46l-3.01.48c.18-2.03,4.26-2.56,4.93-1.9Z"/>
      <path class="cls-14" d="M375.33,509.14c-.06-3.21,1.15-4.76.98-4.98-.11-.14-2.12.17-2-.5.34-1.95,2.74-2.48,3.39-3.5s-.13-2.42.53-3.34c.8-1.12,4.51-.52.11-2.13.85-1.4,5.53-12.93,6.48-12.54,4.64,1.93-1.97,4.26-1.5,4.99l2,2-3.99.02c.67,1.74,3.6.89,1.5,4l-1.49-2.01c1.6,4.6,2.23,8.02-3.01,9.5,5.14,1.83,0,2.58-.02,3.09-.03.62,1.03,1.52.77,2.21-.03.09-1,.14-1.66,1.03-.69.93,1.07,2.56-2.1,2.16.04,1.92-.29,3.82.97,5.52-.89,1.42-1.58.93-2.96.48.86,3.13,1.42,6.94-3,5.99l3.01-12.99c.27-.4,1.46.93,1.99,1Z"/>
      <path class="cls-14" d="M442.32,443.14c.26.29,1.85,6.16,2.32,7.48.26.73,3.55,2.87.19,5.51-2.04-2.17,1.06-3.56-3.51-2.99,3.87-4.55-.83-4.27-1.04-8.46-.09-1.9,1.27-2.38,2.04-1.53Z"/>
      <path class="cls-14" d="M446.48,459.95c.12.27,3.94,2.24,3.85,4.18-1.05-1.06-4.8-.83-4.93-1.05-1.39-2.36-1.62-7.04,1.92-6.94.31,1.32-1.28,2.77-.84,3.8Z"/>
      <path class="cls-14" d="M450.34,466.15c.32.5-.88,1.94-.91,2.53-.04.93,2.42-.45,1.9,1.95-.81,3.7-5.46-3.24-5-5.48.27-.22,3.9.83,4.01,1Z"/>
      <path class="cls-14" d="M453.32,483.14c-.3.36-2.02-1.31-3-.99l-.99,1.99c-1.54-2.33,2-5.76,2.98-5,.16.13,1.23,3.74,1.01,4Z"/>
      <path class="cls-14" d="M610.33,507.14c.24.03,2.58,1.34,1.99,1.98-3.37.17-5.23,7.18-7.98,5.01.57,6.15-.97,2.85-1.82,3.24-.22.1-.65,2.27-3.48,3-1.45.37-3.58-.37-3.7-.22-.25.32.36,2.11-.19,2.75-.61.7-4.38.59-5.35,2.25-2.01-5.49-2.39.31-4.06.82-1.22.37-6.28-1.36-8.41.17-2.38-7.43,4.61-1.75,4.97-2.01.14-.1.6-2.99,1.52-2.98.27,0,1.1,1.58,1.97,1.61,1.76.06,9.58-4.42,11.61-5.12,1.35-.47,2.81.61,2.9.49.17-.2-.25-1.75.35-2.61.5-.73,8.1-8.19,8.67-8.38.25-.93.59-.91,1,0Z"/>
      <path class="cls-14" d="M565.35,405.16c-.09.05.36,1.43-.76,1.93-1.32.59-9.74,3.68-10.96,3.83-4.44.55-2.9-3.26-1.02-4.49,1.99-1.31,7.38-.26,9.23-3.29.78,3.42,3.58,2.7,1.48.01,2.83.13,11.45-4.16,10,1.48-.08.32-5.21,2.18-5.51,2.17-.99-.04-1.82-2.03-2.46-1.65Z"/>
      <path class="cls-14" d="M523.33,466.15c.12.13-1.1,2.07-.99,3.43.27,3.21,3.78,4.2-.02,5.06,4.22,5.17-3.16,6.9,3.99,12.02l-2.02,2.48c-3.43.13-4.17-9.46-3.82-9.9s2.24.64,1.83-1.08c-3.34.61-3.91-13.06-1.49-12.99.13,0,2.42.88,2.51.98Z"/>
      <path class="cls-14" d="M524.07,456.95c-.17.2-5.2,1.44.26,2.21l-2.99,1c-.31,1.96,2.38.54,3.01,1,.17.12-1.54,2.8-1.02,4-4.53-.18-3.18-8.03-.99-10.51-3.17-.79-1.11-2.83-1.99-5.49.35-.35,2.51,1.43,2.99.99,2.17-1.97-2.55-1.66-1.98-2.98,3.46.96.49-10.91,5.48-9,3.74,1.43-1.29,6.19-1.85,7.98-.61,1.96-.05,9.8-.9,10.82Z"/>
      <path class="cls-14" d="M619.33,476.14c-4.41.27,0-5.18-.02-5.51-.03-.84-2.64-1.24-2.86-1.6-.26-.42.76-8.28,2.88-8.89l-3.01.48,3.51-6.49c-.14,3.48,1.33,7.03,1.01,10.48-.14,1.54-1.32,2.32-1.52,3.03-.21.76,1.53.25,1.78.94.45,1.23.68,5.64-1.77,4.55-.49,1.42,1.63.92,1.99,1.99-.21,1.25-.98,1.78-2,1Z"/>
      <path class="cls-14" d="M609.33,507.14c-.22-5.12,3.95-8.87,4.53-14.02,3.99.4,3.84,2.37,2.77,5.78-.08.24-3.1,3.59-3.2,3.89-.44,1.33,2.01,2.69-3.1,4.35-.26-.03-.77-.08-1,0Z"/>
      <path class="cls-14" d="M542.33,416.14c1.88-5.13,2.53-3.66,6.99-7,1.52,6.29.6,2.76-1.68,4.25-.96.63-1.02,3.08-2.97,3.58-1.02.26-2.05-.85-2.35-.83-2.43,6.64-2.41,3.73-6.04,8.45-2.21,2.87.92,4.59-3.96,2.55-.12.58.94,2.04.8,2.52-.71,2.45-4.84-.44-3.29,4.48-4.59-5.25.99-3.55,1.5-4,1.02-.92-3.73-4.97,1-2.99.92-4.43,2.99-6.72,7-8.5l-1.99-1.48c1.69-.47,3.21-.89,4.99-1.01Z"/>
    </g>
    <path class="cls-12" d="M621.33,475.14c.67,1.95-1.26,4.33-2.02,5.98l-1.98-3.47,2,.51c.16-.61-.18-1.64,0-2.01.52-1.01.86-1.15,2-1Z"/>
    <path class="cls-2" d="M569.66,437.48c3.96-4.06,12.49-7.05,17.62-3.79,8.44,5.35,13.66,17.45,14.76,27.23.77,6.84.22,23.7-2.22,30.22-3.72,9.94-13.35,18.69-24.76,15.75-6.78-1.75-13.5-18.09-14.5-24.49-1.71-10.91,1.08-36.7,9.09-44.93Z"/>
  </g>
</svg>