<?xml version="1.0" encoding="UTF-8"?>
<svg id="Capa_1" data-name="Capa 1" xmlns="http://www.w3.org/2000/svg" viewBox="0 0 713.32 357.95">
  <defs>
    <style>
      .cls-1 {
        fill: #0f0902;
      }

      .cls-2 {
        fill: #f3e3b8;
      }

      .cls-3 {
        fill: #e42811;
      }

      .cls-4 {
        fill: #0e1012;
      }

      .cls-5 {
        fill: #100b01;
      }

      .cls-6 {
        fill: #f5472b;
      }

      .cls-7 {
        fill: #0d3d5c;
      }

      .cls-8 {
        fill: #363732;
      }

      .cls-9 {
        fill: #0d4061;
      }

      .cls-10 {
        fill: #0d2437;
      }

      .cls-11 {
        fill: #f3e4b8;
      }

      .cls-12 {
        fill: #091a28;
      }

      .cls-13 {
        fill: #d5c9a9;
      }

      .cls-14 {
        fill: #0c0802;
      }

      .cls-15 {
        fill: #f95536;
      }

      .cls-16 {
        fill: #0d2436;
      }

      .cls-17 {
        fill: #f95839;
      }

      .cls-18 {
        fill: #bbb09a;
      }

      .cls-19 {
        fill: #0c3f5e;
      }

      .cls-20 {
        fill: #fa593a;
      }

      .cls-21 {
        fill: #0a2e48;
      }

      .cls-22 {
        fill: #ceb795;
      }

      .cls-23 {
        fill: #1a668a;
      }

      .cls-24 {
        fill: #0e171e;
      }

      .cls-25 {
        fill: #100a01;
      }

      .cls-26 {
        fill: #155679;
      }

      .cls-27 {
        fill: #f74c2f;
      }

      .cls-28 {
        fill: #a7190b;
      }

      .cls-29 {
        fill: #ad1a0b;
      }

      .cls-30 {
        fill: #fa5a3a;
      }

      .cls-31 {
        fill: #beab8e;
      }

      .cls-32 {
        fill: #0c2a3f;
      }

      .cls-33 {
        fill: #fa5b3b;
      }

      .cls-34 {
        fill: #d3bb96;
      }

      .cls-35 {
        fill: #736c60;
      }

      .cls-36 {
        fill: #d1c8aa;
      }

      .cls-37 {
        fill: #f5482c;
      }

      .cls-38 {
        fill: #f95939;
      }
    </style>
  </defs>
  <g>
    <path class="cls-5" d="M624.27,83.13c.48-.17.97-.32,1.47-.38,4.37-.52,25.19,12.37,30.21,15.64,16.51,10.77,29.1,25.92,38.91,42.87l-.34,2.17c9.02,17.14,15.69,36.24,17.89,54.67,2.06,17.21.52,38.58-3.31,54.34-2.93,12.03-7.12,24.2-13.25,35.12-9.21,16.38-19.34,28.94-34.13,40.75-7.24,5.79-15.6,12.12-23.86,16.57-12.31,6.64-25.07,10.23-38.43,11.93-19.44,2.47-36.4.95-54.34-4.64-2.2-.68-5.04-1.73-7.29-2.65-18.96-7.72-44.59-26.53-57.32-42.74-5.77-7.35-13.65-18.94-17.23-27.83-5.52-13.72-8.43-27.34-10.6-41.75-.61-4.08-1.71-9.15-1.99-13.25-.88-13.07.97-25.38,3.31-37.11,1.92-9.58,4.6-18.7,8.61-27.83,10.9-24.75,23.2-39.77,44.73-57.32,7.4-6.03,11.63-8.61,19.88-12.59,17.15-8.27,33.48-12.84,52.35-13.92,15.16-.86,31.43,2.92,44.73,7.95Z"/>
    <path class="cls-3" d="M693.85,188.16c-2.59-13.16-8.3-26.88-15.24-39.1-1.42-2.49-3.06-4.71-4.64-6.96-2.32-2.9-5.52-4.38-9.6-4.44-12.29-12.39-26.62-24.74-44.07-30.01-.16-.43-.34-.85-.6-1.22-1.43-2.08-19.49-6.17-23.56-6.83-39.76-2.78-76.27,14.84-100.31,47.9-3.73,5.13-15.39,23.05-15.05,28.26.02.28.17.54.36.81l-1.79.89c-1.85,4.85-3.23,9.87-4.41,14.92.89-9.28-.36-12.34-3.75-9.18-5.5,20.39-6.18,40.29-1.33,61.3,8.22,35.58,28.5,64.15,61.63,82.5,8.44,4.68,17.44,8.83,26.84,11.27,3.08.8,6.09.85,9.28,1.33,10.07,1.52,24.11,1.27,33.8-.66,13.64-2.73,26.79-6.15,39.1-14.58,22.89-15.68,40.04-37,49.37-63.62,1.61-4.59,2.6-8.78,3.98-13.58.68-2.39,1.73-5.42,1.99-7.95,1.66-16.35,1.04-35.68-1.99-51.02Z"/>
    <path class="cls-20" d="M648.13,114.94c-11.55-8.15-22.44-14.3-36.11-18.55-5.49-1.71-10.77-2.28-16.57-3.31-7.24-1.29-15.12-1.27-22.53-.66-11.24.93-22.9,4.01-33.13,8.61-28.39,12.78-48.64,34.54-61.3,62.29-.31.67-.99,1.33-.66,1.99l-.66.33c-.1.35.09.76,0,.99-2.25,5.75-4.31,10.44-5.96,16.57l2.65-.33c-.09.85.14,1.85,0,2.65-.77,4.44,0,9.56-.66,13.25-.21,1.16-.06,3.34,0,4.64.05,1.08.57,1.9,1.33.99.18-.22-.12-2.22,0-2.98,1.15-7.3,3.77-18.03,6.63-24.85.61-1.44,1.38-2.95,1.99-4.31,10.01-22.52,25.39-41.18,46.05-54.67,3.42-2.23,6.82-4.05,10.6-5.96,7.26-3.69,17.25-7.03,25.18-8.61,6.41-1.28,13.42-1.47,19.88-2.65,2.18-.4,3.79,1.06,5.96.66,3.46-.63,5.08-.22,8.61.66,6.79,1.69,14.43,3.07,20.87,5.96,10.05,4.51,20.37,10.9,28.83,17.89,1.27,1.05,7.04,5.39,7.62,6.3,1.14,1.78,2.93,3.54,4.31,4.31.85.48,1.77,2.13,2.65,2.65,1.85,1.1,5.1.45,7.29,1.33l2.98,1.99c-7.24-10.34-15.19-19.65-25.84-27.17Z"/>
    <path class="cls-6" d="M622.95,293.19c1.79,1,3.13,4.55,2.65,6.3-.17.63-4.27,3.29-4.97,3.64-.75.38-3.19.95-3.98,1.33-4.05,1.9-9.98,4.39-13.92,5.3-3.2.74-5.95.42-9.28.66-6.57.49-12.6.7-19.22,0-3.68-.39-5.16-.35-8.61-1.33-4.19-1.19-7.99-2.59-11.93-4.64-1.71-.89-5.09-2.29-6.63-3.31-2.59-1.72-5.42-5.89-8.28-7.62l-.66-2.98c19.01,13.48,48.08,17.48,69.25,9.94,4.84-1.72,11.35-4.62,15.57-7.29Z"/>
    <path class="cls-5" d="M622.95,293.19l-.38,1.79c-20.35,12.16-45.07,13.61-67.56,5.65-5.97-2.11-13.31-4.85-16.88-10.08-10.31-7.31-19.07-18.55-25.18-29.49-9.92-17.77-14.12-39.19-9.94-59.64,3.36-16.46,11.97-32.35,22.53-45.72,20.68-26.18,54.58-35.72,85.15-22.2,21.57,9.78,37.97,26.45,46.05,48.71.14.37,1.24,1.69,1.33,1.99,3.39,12.41,5.43,24.56,4.64,38.43-.35,6.14-1.4,13.86-2.65,19.88-3.59,17.2-21.88,41.07-37.11,50.69Z"/>
    <path class="cls-19" d="M574.9,144.76c3.03-.37,9.47-.28,12.59,0,.24.02.42.63.66.66,4.46.57,7.14,1.02,11.27,1.99,21.15,4.97,37.78,24.95,44.07,45.39,1.58,5.12,1.94,7.67,2.65,13.25.26,2.08,1.2,5.95,1.33,7.95.91,14.72-3.66,31.36-11.27,43.74-8.27,13.45-20.13,22.16-34.79,26.84-13.63,4.35-29.79,4.85-43.07-1.33-14.92-6.2-28.5-19.73-34.79-34.79-1.18-2.82-2.6-7.76-3.31-10.6-5.28-21.11-2.77-43.03,9.28-61.63,6.93-10.7,15.61-19.61,26.84-25.51,6.83-3.59,10.72-4.03,17.89-5.3.25-.05.42-.63.66-.66Z"/>
    <path class="cls-21" d="M591.8,163.97l-.87,1.3c-1.88.51-4.3,1.74-5.17,3.75-.21.49,1.83,9.16,2.32,5.18.76-1.02,1.37-1.16,2.39-.28,1.61,1.05,1.26,1.96-.66,1.99l1.34.6c-2.84.85-3.23,7.02-.7,8.56l-.64.79-.27,4.09c1.16,2.39-.14,2.58-2.39,2.57-7.46-2.9-17.6.75-23.29,6.42-2.58,2.57-6.71,7.17-6.59,10.78-4.29,7.58-1.09,20.25,4.47,26.79,4.36,5.12,7.43,6.91,13.62,8.48,13.88,3.53,23.36-.12,29.73-14.01.74-3.21,1.45-6.4,2.13-9.56-.98-1.86-.97-3.6-.77-5.69-1.36-3.55-2.43-6.08-4.48-9.57-2.88-2.84-4.91-6.2.72-5.41l3.02-.98,1.18-1.29c1.38.98,3.19,1.41,5.45,1.29-1.14-1.82,4.28-4.06,4.64-1.99.57,1.59-.47,2.94-3.12,4.07,5.34-.29,9.82-4.26,11.29-9.37.21-.72-4.54-10.37-5.09-10.6-.45.59-1.14.46-1.76,0l-.77.44c-2.93-3.32-6.21-6.31-9.86-8.95l.03-1.43c-1.35-1.54-2.82-2.23-4.41-2.05l-.89-1.26c-2.03-.21-6.65-1.17-5.3-3.98-.24-1.28,1.09-2.16,3.98-2.65,1.99.9,4.17,2.35,6.3,3.31.39.18,2-.18,2.32.99.45,1.62-1,2.83-.66,3.98.61,2.06,3.42-.03,4.97.33.24.05.38.53.66.66.21.09.52-.08.66,0,.46.27,1.95,1.82,2.32,2.32,2.45,3.3,1.15,2.5,4.97,4.97,2.04,1.32,6.86,10.23,7.62,12.59-1.21.79-1.53,1.37-1.36,2.72,2.37,5.71,4.14,11.85,4.78,18.04,2.63,25.33-13.36,54.04-39.34,61.38-11.03,4.66-22.69,2.5-33.23-2.16l-.43-1.79c-.94-.64-.68-1.86.78-3.67l-6.55-4.55c-2.47-3.46-4.22-3.43-5.26.1l-1.57.17-1.3.72c-4.72-3.75-8.7-8.19-11.96-13.31-.03-.08-1.16-.4-1.33-.99-1.61-5.61-3.6-10.02-4.64-15.9-.19-1.09-1.11-3.53-1.33-4.64-1.05-5.51-1.11-15.17-.66-21.21.02-.24.64-.42.66-.66.36-3.94.14-5.56,1.33-9.28.31-.97.5-1.25.66-1.66l1.55.97c10.16-25.78,30.1-37.9,58.04-34.06,1.19.16,3.23,1.18,2.71,2.61Z"/>
    <path class="cls-4" d="M630.24,191.14c.98,3.02,3.03,6.09,3.98,8.95.52,1.58.92,4.26,1.33,5.96.53,2.27,1.76,5.7,1.99,7.95.45,4.4.25,12.62-.66,16.57-1.44,6.19-4.12,13.14-7.29,19.22-4.13,7.91-13.18,16.74-20.87,21.54-7.28,4.54-13.86,6.08-21.87,7.29-.25.04-.42.64-.66.66-7.2.74-13.74-.85-19.88-2.65-11.15-3.27-18.41-8.45-25.51-17.56-.93-1.19-5.72-7.07-5.96-7.95-.18-.64.21-1.85,0-2.32,1.29-.22,1.85.9,2.65,1.66,3,2.82,4.82,6.45,8.28,9.61.1.09,1.71.82,2.32,1.33l1.45-.48c2.88,3.13,6.51,5.39,10.89,6.77l.25,1.66c5.68,3.49,9.8,3.67,16.24,4.64.25.04.42.64.66.66,1.55.16,4.44.19,5.96,0,.48-.06,2.35-.47,3.31-.66,4.36-.86,9.83-2.79,13.92-4.64,14.22-6.44,22.21-16.81,27.5-30.81.91-2.41,2.98-6.36,3.31-8.61.18-1.23-.16-2.72,0-3.98.03-.25.64-.42.66-.66.34-3.74.38-10.87,0-14.58-.39-3.78-2.08-9.4-3.31-13.25-.25-.78-1.16-2.6-1.33-3.31-.13-.57.09-1.35,0-1.99,1.09-1.77.58-2.31,2.65-.99Z"/>
    <path class="cls-24" d="M601.08,161.99v.99c-1.01,1.54-2.57.58-3.98,1.66-.75,2.56-4.21,1.06-5.3-.66l-2.98-1.33c-10.71-1.09-21.2-.65-30.48,3.31-11.66,4.98-22.02,18.71-26.17,30.15-.09.26-.55.39-.66.66-.31.73.62,1.29-1.66.99-.73-.09-.17-2.53-.33-3.31,1.06-2.62,2.09-5.26,3.31-7.62,6.41-12.39,16.12-23.77,30.15-27.5,1.85-.49,4.09-.38,5.96-.66.25-.04.42-.64.66-.66,4.67-.48,15.97-.56,20.54,0,.65.08,3.16,1.12,3.98,1.33,2.9.74,4.68,1.63,6.96,2.65Z"/>
    <path class="cls-12" d="M589.81,187.17c.13,1.16.35,2.27.66,3.31l1.54.41c1.38,4.94,8.13,9.76,13.02,7.53l.68,1.33c-.61,1.89-5.06,1.09-5.3,1.33-.17,2.03,1.85,3.06,2.65,4.31.63.97,3.06,5.03,3.31,5.96.15.56-.15,1.42,0,1.99.08.29,1.27,1.74,1.33,1.99.24,1.12-.18,2.75,0,3.98.04.26,1.05,1,.66,2.65-.06.26-.63.42-.66.66-.21,1.42.28,3.34,0,4.64-.05.25-1.25,1.7-1.33,1.99-.15.56.15,1.42,0,1.99-.26.96-3.42,6.55-3.98,7.29-.8,1.07-5.81,5.53-6.96,6.3-.35.23-3.76,1.93-3.98,1.99-.55.15-1.39-.13-1.99,0-.26.06-.42.63-.66.66-2.07.3-7.11.22-9.28,0-.24-.02-.41-.63-.66-.66-1.03-.16-2.3.17-3.31,0-.25-.04-.4-.61-.66-.66-.6-.13-1.44.15-1.99,0-.3-.08-1.59-1.17-1.99-1.33s-.96.16-1.33,0c-3.1-1.35-9.95-8.04-11.6-10.93-1.14-2-2.03-5.1-2.65-7.29-.49-1.72-.4-2.26-.66-3.98-.04-.25-.64-.42-.66-.66-.19-1.85-.22-5.47,0-7.29.03-.24.62-.41.66-.66.14-.81-.17-1.88,0-2.65.05-.25,1.25-1.7,1.33-1.99.15-.56-.15-1.42,0-1.99.38-1.39,3-4.7,3.98-5.96,3.55-4.61,6.01-6.59,11.6-8.95,1.06-.44,3.75-1.83,4.64-1.99,1.81-.32,7.99-.24,9.94,0,.24.03.4.61.66.66.68.14,1.58-.09,2.32,0l.66-5.3c1.74.46,1.73.85,0,1.33Z"/>
    <path class="cls-11" d="M607.71,171.93c.78,0,1.67,1.53,2.32,1.99.44.31,2.26,1.03,2.65,1.33.66.5,5.2,5.84,5.63,6.63,2.19-.45,4.34,6.6,1.99,7.29-1.02.45-1.68.03-1.96-1.27-1.02,4.07-3.23,7.86-7.1,9.68,1.56.32,2.52.9,1.11,2.19-1.2-.51-2.19.66-2.32.66-.38,0-2.46-.76-4.31-.66-1.16.06-2.3-.36-2.98.66-2.35.42-4.05-.81-5.96-1.99-1.46-.9-3.92-2.72-4.97-4.31-.61-.91-.97-2.77-1.33-3.64-.24-1.06-.46-2.16-.66-3.31-.04-.43.08-.96,0-1.33-.17-.72-1.26-2.03-1.33-2.32-.16-.73-.16-3.91,0-4.64.05-.24,1.2-1.64,1.33-1.99s-.1-.77,0-.99c2.18.16,1.41,3.6.59,5.08,3.37-4.69,11.67-12.77,17.31-9.06Z"/>
    <path class="cls-19" d="M618.31,181.87c1.48-.41-.39-1.99,1.66-1.99,1.05,0,1.12-.22.99.99,2.09,2.94,2.9,6.77,5.3,9.28-.08.9-.11,1.47.66,1.99-1.01,1.48-1.71,3.11-2.65,4.64-.1.17.1.52,0,.66-.41.62-3.02,3.23-3.64,3.64-.28.18-1.57.47-1.99.66-.53.24-2.35,1.27-2.65,1.33-.62.11-4.15.15-4.31,0-.08-.07-.1-1.42-.66-1.99l2.98-.66,2.98-2.65c-.51-1.42-.07-3.1,1.33-5.04.19-1.83.85-3.02,1.98-3.57-.02-.55.08-1.16,0-1.66-.04-.25-.61-.4-.66-.66-.13-.6.15-1.44,0-1.99-.07-.26-.57-.39-.66-.66-.23-.7-.05-1.22-.66-2.32Z"/>
    <path class="cls-19" d="M591.8,163.97c.73-.03,1.64-.1,2.32,0,.24.04.4.61.66.66.68.15,1.87-.2,2.32,0,.15.07,1.26,1.51,2.32,1.99.68.31,2.43-.23,2.32,1.66l.66.33c.18.61.07,1.14-.38,1.58-3.74.41-8.41.93-10.15,4.43l-1.4-.7-1.33.99c-.28.49-.58,2.24-.66,2.32-.13.13-1.45-.08-1.99,0,.36-1.09-.56-1.31-.66-1.66-.16-.55.16-1.44,0-1.99-.12-.42-1.27-2.36-1.33-2.65-.1-.54-.13-2.2,0-2.65.07-.25,3.4-3.57,3.64-3.64.42-.12.94.13,1.33,0,.28-.1.42-.61.66-.66.47-.1,1.11.02,1.66,0Z"/>
    <path class="cls-13" d="M607.71,171.93c-.64,0-.83.66-.99.66-.15,0-.97-1.06-2.65-.66-.25.06-.4.59-.66.66-1.88.54-2.99.92-4.64,1.99-2.61,1.69-5.67,4.64-7.29,7.29-.62,1.02-.16,2.45-.33,2.65-1.38,1.64-1.24-1.44-1.33-1.66-.11-.28-.61-.42-.66-.66-.21-.91-.13-2.14.66-2.65v-3.64c.29-.66.61-1.89.66-1.99.04-.07.89-.39,1.33-.99.1-.13-.11-.49,0-.66.66-1.04,1.94-1.18,2.98-1.66.28-.12.41-.57.66-.66.37-.14.9.12,1.33,0,.27-.08.42-.62.66-.66,2.09-.37,2.78.37,4.97-.66.21-.1,3.25-.11,3.64,0,.87.24,2.08,2.29,1.66,3.31Z"/>
    <path class="cls-23" d="M560.66,269.34c-2.35-1.44-5.73-2.37-8.28-3.98-1.82-1.14-2.93-2.83-4.31-3.98l2.32-4.64c.85.45,1.94.45,2.65.66.5.15,1.89,2.15,2.65,2.65,1.97,1.31,4.15,2.61,5.96,3.98.59.44,1.07,1.17,1.66,1.66l-2.65,3.64Z"/>
    <path class="cls-36" d="M612.34,199.76s.11-.56-.33-.66l-4.97-.33c.63-.73,1.52-1.17,2.32-1.66,1.7-1.03,3.59-1.79,4.97-3.64.78-1.04,2.34-4.15,2.65-5.3.13-.49-.14-1.51,0-1.66.07-.08,1.42-.1,1.99-.66l1.33,3.31c.11,3.09-1.46,5.99-3.31,8.61-1.25-.49-1.74,1.16-2.32,1.33-.42.12-.94-.13-1.33,0-.27.09-.69.97-.99.66Z"/>
    <path class="cls-21" d="M590.48,190.48s-.55.12-.66-.33c-.19-.78.08-2.05,0-2.98l.66.33v2.98Z"/>
    <circle class="cls-12" cx="581.68" cy="219.94" r="29.44"/>
    <circle class="cls-11" cx="604.11" cy="183.91" r="25.18"/>
  </g>
  <g>
    <path class="cls-25" d="M485.23,308.1c-2.23-1.09-5.11-.89-6.24-2.99-17.66-53.69-35.84-107.22-54.87-160.43-5.21-14.56-16.76-53.59-25.83-63.36-9.91-10.69-28.06-7.56-41.56-7.65-1.53,0-2.86-.49-4.69-.49-.67,0-1.64.49-2.64.49-25.36.07-46.89-6.77-51.83,25.06-1.01,6.48-1.62,12.07,3.5,17.08,2.94,2.87,8.68,2.26,7.14,7.08-23.21,59.26-43.31,119.7-64.5,179.71-.9,2.56.36,3.07-2.57,4.81-2.5,1.49-5.08,1.88-7.72,3.97-13.06,10.32-13.25,42,6.48,43.99,22.27-1.42,46.93,1.92,68.91.03,21.45-1.85,25.58-36.73,9.54-45.88-1.69-.96-4.61-1.01-4.97-3.07-.8-4.56,7.72-21.32,8.92-26.76l1.83-.63,63.11.32,8.56,27.14c-.06,2.01-6.26,3.06-8.17,4.06-12.49,6.56-12.27,32.77-1.24,40.39,8.45,5.84,17.13,3.26,26.33,3.15,22.28-.27,48.51,1.92,70.17.05,10.74-.93,15.01-10.24,15.69-19.99.91-12.93-1.45-20.27-13.34-26.08ZM343.54,217.59l13.83-40.6,13.23,40.6h-27.07Z"/>
    <path class="cls-3" d="M483.79,328.31c-1.17-.87-2.8-1.01-4.89-.41-8.9-.05-10.4-3.91-11.72-11.9-15.38-46.09-30.43-92.34-46.74-138.11-1.87-5.25-13.81-42.64-16.01-43.36-4.49-10.32-9.21-20.56-14.15-30.7-3.01-4.98-4.97-7.69-11.25-8.07-19.25-.74-38.42-.68-57.5.17-2.22-.06-4.49-.59-6.09-2.24l-1.44.24c-1.02,2.26-2.9,9.72-1.08,11.54,3.29,3.31,13.64-2.22,14,5.07l1.11.87c3.66-1.35,4.43,2.1,3.72,5.07-6.73,17.64-13.38,35.3-19.82,53.05-18.4,50.69-36.82,101.37-55.33,152.02-.22.61-4.41,4.93-5.26,5.66-4.21,3.58-7.05,4.07-11.77.48-.6,3.08-2.62,11.77,2.12,12.34l66.46-.05c4.37-1.78,4.53-6.32,4.63-10.44l-.74-1.26-9.05-.1c-4.12.23-8.43-4.22-5.59-7.87l-1.73-3.54c3.18-13.53,7.93-27.3,12.79-40.45,1.8-4.86,2.87-12.04,8.92-12.61,24.35,1.71,51.71-2.23,75.71-.01,4.13.38,5.67,2.85,7.07,6.46,2.24,13.01,10.43,27.73,12.61,40.29.25,1.43.47,2.88.28,4.33l1.25.84c8.48-2.84,4.46,8.46.13,10.94-5.48,3.15-15.08,2.98-20.45-.1-.85,3.08-1.78,10.49,1.51,12.33,2.97,1.67,8.37.01,11.69-.06,22.1-.47,44.47-.06,66.47.64,9.55.3,10.92-1.08,10.14-11.07ZM343.55,217.04l13.83-40.6,13.23,40.6h-27.07Z"/>
    <path class="cls-38" d="M326.93,110.55c5.03-2.29,7.11,1.73,6.01,6.32-26.08,68.04-49.51,137.14-75.25,205.25-4.16,4.79-9.94,12.68-16.91,7.74-.97-.69-1.6-.2-1.2-2.17,1.47-7.52,4.96-5.8,10.05-9.33,6.2-4.31,12.21-27.79,15.16-35.89,15.54-42.59,30.69-85.32,46.14-127.95,4.63-12.79,10.91-26.55,14.78-39.35.44-1.45,1.3-3.12,1.22-4.62Z"/>
    <path class="cls-17" d="M404.43,134.54c-1.99-.64-12.76-26.4-16.09-31.58-2.67-4.16-4.34-5.53-9.42-5.96-15.39-1.31-35.43-.17-51.09.02-5.03.06-10.38,1.17-13.83-3.07,1.55-3.42,3.23-4.52,7.08-4.91,18.98-1.92,40.99,1.43,60.3-.03,4.36.05,7.85,3.28,9.62,6.99l13.42,38.56Z"/>
    <path class="cls-15" d="M413.05,314.78c10.91-4.43,8.2,8.94,2.05,12.82-4.17,2.63-13.42,2.98-18.07,1.67-.65-.18-3.4-1.57-3.05-2.8,1.72-6.23,4.96-3.78,10.08-4.37,4.14-.48,8.41-2.82,8.99-7.31Z"/>
    <path class="cls-37" d="M297.4,320.31c.6.05,1.67,1.08,2.8,1.2,3.15.33,11.79-1.24,12.56,2.82.26,1.37.05,3.69.01,5.22-4.19-.24-11.08.77-14.73-1.57-2.11-1.35-4.87-8.02-.64-7.66Z"/>
    <path class="cls-27" d="M483.79,328.31c-9.46,2.8-18.92-1.43-16.61-12.3,1.43,1.42,2.92,3.89,4.75,4.78,5.09,2.48,11.12-1.95,11.86,7.52Z"/>
    <path class="cls-15" d="M325.7,230.5c.84,1.56,2.28,1.89,3.97,1.87,16.87-.94,35.01.5,51.73-.62,1.19-.08,5.22-.47,6.02-.74,1.21-.41,1.31-2.13,1.64-2.36,3.42-2.28,6.35,1.77,6.18,5.2-.21,4.28-3.14,6.14-7.08,6.51-10.41.98-23.72-.08-34.5-.05-6.15.02-10.68.4-17.17,0-3.64-.23-7.34.96-10.48-1.21-3.58-2.47-5.26-6.71-.31-8.61Z"/>
    <path class="cls-25" d="M404.92,166.41c-.46.79-9.91,4.08-11.12,3.72-2.87-.85-4.78-12.26-6.58-15.03-.7-4.27,8.39-10.27,11.38-7.63.62.55,5.76,13.83,6.15,15.37.25,1.01.69,2.68.17,3.58Z"/>
    <path class="cls-25" d="M416.31,233.14c1.07-1.28,9.41-5.13,10.9-4.2,1.4.88,7.34,17.17,5.85,19.43-.75,1.13-11.01,3.11-12.64,2.14-1.12-.67-3.62-12.25-4.78-14.34-.2-1.08-.05-2.17.67-3.03Z"/>
    <path class="cls-25" d="M438.72,273.69c2.25-.46,3.07-.3,4.38,1.5.68.93,5.73,14.45,5.65,15.26-.31,3.19-11.13,5.63-13.29,4.06-1.75-1.26-4.3-13.53-5.72-16.28.18-.78,7.89-4.32,8.98-4.55Z"/>
    <path class="cls-25" d="M408.56,186.34c1.32-.31,3.15-.46,4.19.48.67,2.86,5.95,13.03,5.83,15.03-.22,3.65-9.16,7.61-11.42,5.93-1.55-1.15-6.47-13.24-6.47-15.13,0-2.09,6.06-5.9,7.87-6.32Z"/>
    <path class="cls-25" d="M389.06,228.66c-1.04-5.92-3.76-11.6-5.7-17.37-7.78-23.2-15.09-46.59-22.29-69.98-3.06-4.74-5.5-3.48-7.54,1.07-5.79,12.92-10.08,31.05-14.75,44.92-4.53,13.47-10.07,26.78-13.75,40.45,0,1.05.17,1.83.67,2.75-.82,1.49-.09,2.19,1.34,2.71,18.11.3,36.66.29,54.91-.26,2.78-.08,9.72-.57,7.11-4.29ZM343.42,217.12l13.83-40.6,13.23,40.6h-27.07Z"/>
  </g>
  <g>
    <path class="cls-25" d="M100.25,134.52c-2.6,14.07-1.23,28.88-1.47,43.27-.3,18.13-1.66,36.79-.72,55,1.55,29.8,19.74,46.31,49.87,38.55,24.83-6.4,28.17-25.1,29.04-47.83,1.1-28.81-1.72-61.32.65-89.48.98-11.6,5.49-21.71,18.22-22.86,10.36-.94,47.81-1.37,56.68.94,7.34,1.92,11.28,7.9,11.91,15.26,2.87,33.43-2.22,70.89,0,104.75-.93,30.46-6.86,59.37-26.86,83.15-43.39,51.6-140.19,54.68-190.17,11.24C-2.22,283.37,14.04,218.89,11.29,160.53c-.41-2.17-5.44-3.1-7.3-5.29-1.22-1.43-2.99-5.48-3.25-7.36-1.39-10.16-.62-34.43.68-44.93.73-5.93,4-8.86,9.06-11.48,16.75-8.69,39.79-15.69,57.77-23.07C123.28,45.81,178.44,23.58,233.96,2.18c11.31-3.49,16.56-3.92,22.41,7.36,4.44,8.57,15.11,33.64,16.5,42.47,1.6,10.09-2.16,15.14-10.66,19.51-54,20.94-107.79,42.5-161.97,63Z"/>
    <path class="cls-3" d="M248.52,135.02c1.03,30.56,1.12,65.24.03,95.78-.46,12.79-1.78,27.11-5.33,39.4-1.74.07-2.21-1.24-1.41-3.93,1.75-4.89,1.18-6.28-1.69-4.14-6.74,17.41-13.52,33.43-28.48,45.7-14.8,12.13-31.32,18.05-49.96,20.88-5.12-.17-23.16,10.03-8.15,7.44l13.65-2.39c1.61,0,2.52.43,1.82,2.05-5.24.55-10.43,1.93-15.65,2.57-42.15,5.12-84.36-5.14-109.59-41-6.57-16.94-11.87-33.81-11.17-52.95.05-23.81.23-47.67.69-71.48.03-1.66.62-3.25,1.2-4.79l2.49-1.09c15.13,1.76,30.13,1.97,45.02.62l1.53.46c.51,21.54-1.5,43.12-.69,64.64.44,11.71,1.25,20.23,6.66,30.78-.93,4.25,4.33,10.89,7.24,13.98,32.26,34.28,97.08,18,101.4-31.4,1.46-34.36,1.87-68.46,1.23-102.3-1.03-10.89,5.22-11.8,14.41-10.14l27.81-.11c2.37.18,4.69.65,6.95,1.4Z"/>
    <path class="cls-30" d="M248.52,135.02c-11.59-.2-23.2.01-34.82.03-1.41,0-2.69-.7-3.95-.69-.96,0-7.45.77-7.69,1.08-2.24,2.83-1.09,16.67-1.23,21.15-.82,26.98.85,55.53-.66,82.17-1.25,22.04-9.67,41.38-30.27,51.23-26.38,12.62-61.24,8.57-78.3-16.93-1.09-1.62-6.27-9.18-2.11-9.48,9.65,18.84,33.13,29.71,53.94,26.44,29.25-4.59,47.71-26.03,49.46-55.24,1.98-32.97-.91-68.23.61-101.44-.02-3.52,1.95-6.68,5.64-6.95,14.19,1.11,30.48-1.44,44.41.02,6.11.64,4.81,3.74,4.97,8.61Z"/>
    <path class="cls-2" d="M193.52,71.4l.06,1.4c-2.48,2.39-3.93,5.6-5.14,8.76,1.27-.14,1.64.57,1.1,1.77-5.52,2.42-15.27,7.61-20.52,8.96-4.86,1.26-9.37-2.67-13.36-5.23-10.02-6.44-25.43-16.52-34.19-24.08-.47-.41-1.25.03-.84-1.51l32.77-13.29,4.63-.61c12.47,6.93,24.12,15.3,35.5,23.84Z"/>
    <path class="cls-2" d="M110.68,103.87l.19,1.5c-2.57,2.45-4.01,6.28-4.16,9.77-3.66,1.52-22.45,10.09-24.53,9.65-1.5-.32-5.58-3.08-7.22-4.07-12.92-7.76-24.97-17.24-37.82-25.12l35.11-14.59c3.83-1.27,7.21,1.81,10.29,3.64,9.36,5.55,19.16,12.94,28.15,19.23Z"/>
    <path class="cls-10" d="M203.46,36.95c12.33,8.81,25.66,16.64,37.11,26.5l-29.13,11.01-2.17.14c-12.35-8.27-24.44-17.05-36.95-25.06l.63-1.36c9.57-5.06,19.74-8.8,30.51-11.23Z"/>
    <path class="cls-16" d="M88.82,82.01c.33-1.93,2.03-3.08,5.08-3.44,9.1-1.11,17.62-5.29,25.4-9.15,13.08,7.95,25.42,17.28,38.11,25.84.62.69-.73,1.2-1.19,1.47-3.51,2.05-23.61,9.45-27.61,10.16-5.94,1.06-11.04-5.55-15.72-8.87-7.81-5.55-15.95-10.95-24.07-16.02Z"/>
    <path class="cls-32" d="M36.47,102.55c.55.32,1.63.42,2.6,1.02,14.92,9.18,28.66,20.46,43.59,29.64,2.93,11.21.04,8.56-8.08,9.1-13.94.92-27.78.41-41.78.63-4.99.08-10.47,1.9-15.56-.29-1.02-.76-.54-2-.65-2.99.51-.93,1.66-1.34,3.47-1.24l1.07-1.05,1.1-25.45c.2-2.1,1.87-4.24,3.67-5.3,3.86-.87,7.38-2.22,10.58-4.07Z"/>
    <path class="cls-2" d="M255.81,48.21c-1.46-.68-4.71,7.97-4.38,8.34,2.05-.95,3.5-.86,4.38.28-1.48,1.58-7.01,3.99-9.09,2.8l-40.55-27.71c-4.1-2.83-.83-3.61,2.15-5.02,6.27-2.97,22.73-10.07,28.93-11.49,2.89-.66,6.24-.8,7.8,2.15,3.23,10.31,7.71,20.31,10.76,30.66Z"/>
    <path class="cls-29" d="M169,335.8c-.12.01-.51-.94-2.27-.69-3.99.56-15.54,3.29-18.6,2.68-6.53-1.29,4.02-7.74,6.66-8.59,12.04-3.85,23.39-3.83,35.87-9.86,25.01-12.08,36.76-26.73,45.8-52.27.2-.57,2.49-5.65,2.73-5.87,1.29-1.2,3.66-1.45,5.35-1.62.57.53-2.78,9.1-1.32,10.6-8.96,31.06-30.76,50.84-60.62,61.64-3.6,1.3-9.99,3.55-13.6,3.96Z"/>
    <path class="cls-33" d="M34.48,168.15c1.1,32.52-2.69,65.21.82,97.59,1.26,3.66,1.66,7.51,2.68,11.23,1.85,6.73,5.8,13.31,5.78,20.4-10.72-15.24-15.5-31.24-16.59-50-1.46-24.95-.67-55.33.03-80.54,1.39-1.78,6.51-.73,7.29,1.33Z"/>
    <path class="cls-28" d="M83.52,168.15c-1.14,1.08-2.07,1.26-3.6,1.37-13.49.98-31.88.02-45.43-1.37-2.27-.23-4.99-.91-7.29-1.33.07-2.67-1.07-7.29,2.34-7.93,3-.56,9.82-.12,13.26-.05,1.57.03,3.02.69,4.58.72,9.95.18,23.91-1.29,33.19-.06,4.32.57,2.87,5.11,2.95,8.65Z"/>
    <path class="cls-26" d="M36.47,102.55c-.45,4.26-6.89,3.43-10.2,5.37-1.21.71-1.9,2.16-2.69,3.27l-1.15,26.68c-1.09,2.29-3.63,2.32-5.84,1.78-.83-7.62-.27-12.82.03-20.18.17-4.13-.93-12.29,1.02-15.55,1.35-2.25,9.43-5.39,11.89-5.38,3.2.02,4.9,2.8,6.95,4Z"/>
    <path class="cls-9" d="M203.46,36.95c.07,1.98-.99,1.65-2.27,2.04-9.83,2.98-19.86,5.42-28.87,10.55-.68-.43-2.34-.44-3.65-1.32-6.57-4.43.67-5.7,5-7.6,4.8-2.11,17.71-7.83,22.25-8.27,3.97-.39,4.91,2.72,7.55,4.61Z"/>
    <path class="cls-7" d="M119.3,69.42c-1.02,3.66-4.91,3.59-7.49,4.77s-4.55,2.51-7.22,3.38c-5.1,1.66-11.11,1.57-15.77,4.44-1.3-.81-4.98-1.11-5.86-3.76-.61-1.82,2.09-2.44,3.89-3.19,8.06-3.37,17-5.78,25-9.5,2.34-.35,5.59,2.73,7.46,3.86Z"/>
    <path class="cls-34" d="M189.54,83.33c-.36-1.26-2.35.3-2.65,0-.9-.92,3.99-11.41,6.62-11.93,1.31.98,8.18,5.18,7.95,6.28-.3,1.42-9.97,4.78-11.93,5.64Z"/>
    <path class="cls-31" d="M110.68,103.87c2.54,1.78,5.21,3.38,7.75,5.15.57.4,1.23-.12.87,1.47-4.33,1.06-8.49,2.95-12.59,4.65-1.92-.91-1.33-1.53-.87-3.18.81-2.92,2.26-6.43,4.85-8.09Z"/>
    <path class="cls-22" d="M255.81,56.83l-6.64,1.65,4.66-12.24,1.98,1.98c.91,3.1,2.76,5.66,0,8.61Z"/>
    <path class="cls-1" d="M34.3,111.98c10.16-1.85,16.27,4.7,14.71,14.71-1.46,9.4-15.84,12.08-21.46,3.65-4.11-6.16-.54-17.03,6.75-18.36Z"/>
    <path class="cls-35" d="M32.49,128.39l1.02-1.07c2.56,1.31,4.65,1.45,6.26.4-.98-.26-.54-1.14,1.33-2.65-.7-.81-1.35-1.85-1.93-3.1-1.76-.07-3.32-.36-4.7-.87-.66-.21-.66-.87,0-1.99.52-.7-.49-1.62,2.37-1.94,9.26-1.02,9.79,10.9,3.12,12.4-1.73.39-6.52.84-7.48-1.19Z"/>
    <path class="cls-8" d="M32.49,128.39c-2.86-1.07-2.91-3.98-2.65-6.63h1.98s.02,3.33.02,3.33c.35-.03.6-.68.65-.67.46-.73,1-.4,1.63.99,1.58,1.31,3.47,2.09,5.66,2.32,0,.05.69.35.67.65-2.28.58-5.76.84-7.96.02Z"/>
    <path class="cls-18" d="M34.48,121.1l1,1c-1.34,2.83,1.87,3.83,4.11,2.47l1.52.51c-.3,1.16-1.24,2.19-1.33,2.65-3.34,1.86-6.87-3.26-7.29-3.31-.34-2.66.71-3.57,1.99-5.3-.09.63.13,1.43,0,1.99Z"/>
    <path class="cls-14" d="M41.1,125.08c-2.35,2.19-7.07,2-7.28-1.76-.08-1.49.53-1.67.66-2.22,3.72-1.74,7.8-.58,6.63,3.98Z"/>
  </g>
</svg>