<?xml version="1.0" encoding="UTF-8"?>
<svg id="Capa_1" data-name="Capa 1" xmlns="http://www.w3.org/2000/svg" viewBox="0 0 1024 1536">
  <defs>
    <style>
      .cls-1 {
        fill: #f9bc8f;
      }

      .cls-2 {
        fill: #150d07;
      }

      .cls-3 {
        fill: #eab25b;
      }

      .cls-4 {
        fill: #865626;
      }

      .cls-5 {
        fill: #0d0904;
      }

      .cls-6 {
        fill: #efa355;
      }

      .cls-7 {
        fill: #151107;
      }

      .cls-8 {
        fill: #0f0b04;
      }

      .cls-9 {
        fill: #6d451c;
      }

      .cls-10 {
        fill: #d5804c;
      }

      .cls-11 {
        fill: #141007;
      }

      .cls-12 {
        fill: #935f22;
      }

      .cls-13 {
        fill: #a97032;
      }

      .cls-14 {
        fill: #f1e7d3;
      }

      .cls-15 {
        fill: #d07b48;
      }

      .cls-16 {
        fill: #8b5821;
      }

      .cls-17 {
        fill: #aa7032;
      }

      .cls-18 {
        fill: #8d5a20;
      }

      .cls-19 {
        fill: #120e06;
      }

      .cls-20 {
        fill: #8b5921;
      }

      .cls-21 {
        fill: #f1e6d1;
      }

      .cls-22 {
        fill: #292319;
      }

      .cls-23 {
        fill: #100c05;
      }

      .cls-24 {
        fill: #d5814c;
      }

      .cls-25 {
        fill: #f9bd91;
      }

      .cls-26 {
        fill: #2e3d44;
      }

      .cls-27 {
        fill: #d47f4b;
      }

      .cls-28 {
        fill: #875626;
      }

      .cls-29 {
        fill: #0e0a04;
      }

      .cls-30 {
        fill: #0c0806;
      }

      .cls-31 {
        fill: #5f3e1b;
      }

      .cls-32 {
        fill: #0e0804;
      }

      .cls-33 {
        fill: #f7bb85;
      }

      .cls-34 {
        fill: #ac7233;
      }

      .cls-35 {
        fill: #784d1e;
      }

      .cls-36 {
        fill: #b94627;
      }

      .cls-37 {
        fill: #d6824e;
      }

      .cls-38 {
        fill: #f1e7d2;
      }

      .cls-39 {
        fill: #d27d49;
      }

      .cls-40 {
        fill: #d5804d;
      }

      .cls-41 {
        fill: #a96f31;
      }

      .cls-42 {
        fill: #efa354;
      }

      .cls-43 {
        fill: #0f0a05;
      }

      .cls-44 {
        fill: #0e0906;
      }

      .cls-45 {
        fill: #0e0905;
      }

      .cls-46 {
        fill: #5e3d1b;
      }

      .cls-47 {
        fill: #2a3943;
      }

      .cls-48 {
        fill: #e26b38;
      }

      .cls-49 {
        fill: #100b05;
      }

      .cls-50 {
        fill: #f8bc88;
      }

      .cls-51 {
        fill: #0f0b05;
      }

      .cls-52 {
        fill: #80521e;
      }

      .cls-53 {
        fill: #623f1b;
      }

      .cls-54 {
        fill: #f9bc90;
      }
    </style>
  </defs>
  <path class="cls-6" d="M0,1178V0h1023.99v1161l-2.16.35c-22.97-41.36-58.88-64.32-101.31-84.19-1.95-.91-4.24-2.01-5.98-3.12-.29-.18-.44-.58-.55-1.04-1.08-.85-.9-2.17-.6-3.41,19.56-53.75,15.64-111.9,9.83-167.81-13.03-93.1-24.24-186.56-33.63-280.37-8.46-79.93-20-159.67-36.91-237.61-14.94-68.88-37.73-135.09-81.19-191.27-35.48-45.86-92.6-82.53-151.61-71.53-90.9-75.75-223.62-45.16-311.72,24.15-129.24,101.68-165.46,262.16-182.46,417.57-7.52,86.96-29.24,172.03-53.98,255.87-21.39,78.75-45.19,179,14.92,245.26l1.35,4.16c2.88-1.06,5.13,1.11,4,4,1.65.3,2.99,1.63,4,4,2.51-1.71,7.44,4.12,5.04,7.17-9.91,3.75-19.1,8.76-27.58,15.02l-2.46-.2c-3.05,2.33-6.05,3.99-9,5,.69,2.83-1.26,4.43-4,4-14.96,11.94-27.22,25.71-39.07,40.98l-1.93,1.02c2.32,1.81,1,4.41-2,4-3.3,6.85-7.42,14.36-12,20,2.1,1.12-.87,7.05-3,5Z"/>
  <path class="cls-22" d="M933,1095c.33-.38.67-.74,1.07-1.03,1.01-.73,20.01,9.79,21.66,11.46,4.58,4.61,4.42,11.22,1.16,16.68l-4.04,16,1.09,3.54c-14.42,65.7-28.81,131.15-43.15,196.35.09,4.99-.59,9.84-2.02,14.54-1.16,18.75-2.02,38.65.91,57.54,4.18,41.86,7.94,83.38,11.26,124.56l-1.96,1.36H118l-1.25-1.72c3.61-33.53,7.15-66.7,10.62-99.49,2.99-31.77,3.87-63.96-.51-95.64-1.79-5.27-2.11-12.4,5.37-11.12,35.78-7.77,68.51-38.48,79.56-72.95,4.3-5.85,6.85-.87,6.2,4.63-1.84,15.47-6.93,34.6-13.16,48.9-8.24,18.9-16.77,30.71-34.89,40.43-3.94,5.25,16.06,8.38,19.27,7.87,4.46,1.08,12.34.41,17.4-.38,66.47-10.29,115.83-66.87,129.18-130.6l-.68-2.37c3.9-15.6,5.22-31.73,3.98-48.41.33-2.92,2.57-4.87,5.43-3.61,30.03,29.71,71.54,44.25,111.46,55.34,34.18,6.22,70.93,9.97,105.4,4.03,18.19-3.14,36.51-6.84,54.31-11.81,25.11-7,46.22-18.13,67.51-32.88,8.8-6.27,8.29,1.08,5.68,7.97-15.14,39.84-26.65,67.1-64.74,88.9-20.82,8.06-26.01,12.7-15.55,13.92,6.4,7.25,10.21,8.86,19.44,10.65,29.14,5.66,59.24-5.29,84.18-20.11,3.31.02,3.41,2,1.79,4.45l-1.12,3.6c-9.14,9.54-18.75,16.69-30.52,22.01-1.27.84.96,2.24,1.83,2.53,5.21,1.75,31.17-3.31,37.03-4.81,22.17-5.64,47.78-22.51,64.83-37.6,15.74-13.93,27.33-29.06,39-46.38,5.37-11.55,11.31-22.84,17.82-33.87,2.9-9.14,6.45-17.93,10.65-26.38-.42-.74-.71-1.44-.53-1.99,9.7-29.06,19.21-59.15,24.42-89.38.26-3.3,2.01-8.01,5.73-7.69,16.02,5.82,31.28,12.5,45.77,20.06l4.1,2.9Z"/>
  <path class="cls-7" d="M360,851c1.86-1.47,4.4-2.8,6.5-.85,4.28-2.89,8.59-.68,6.71,4.61,1.57,2.89,2.17,5.3,1.79,7.23,1.34,2,1.02,3.34-1,5-1.47,1.77-1.47,3.43,0,5,3.63.02,5.25,11.13,2,12.5.47-.05.93-.06,1.33.08,2.04.69,1.11,38.43.67,42.75l-2,1.17c.47.06.93.15,1.32.36,1.76.95-2.1,13.68-3.32,15.14.74.32,1.62.85,1.58,1.54-1.36,22.45-7.8,47.79-22.33,65.68l-3.24.78c-.58-.45-4.19,2.92-4,4l.42,2.43c-4.74,4.61-9.93,8.34-15.58,11.19,2.75,23.44,5.86,46.95,9.32,70.53l-1.16,1.85c.05.56.72,1.56,2,3,2.33-1.51,2.83-.6,2,2,1,2.1,2.91,4.01,5,5,2.54-1.26,3.31-.52,2,2,3.48,3.08,6.81,6.08,10,9,1.42-1.5,1.99-.9,1,1l7,5c1.86-2.5,9.79,3.07,7,5l4,3c1.67-2.64,4.61-.97,4,2l7,4c1.71-2.45,3.05-1.8,2,1,14.99,8.46,30.67,15.33,47.04,20.61,26.74,7.37,55.13,10.53,82.99,11.1l-1.04,1.3c1.8.09,3.43.09,5-1,.29-1.58,1.21-1.44,2,0,3.24,2.54,7.76,1.91,11.48.98l9.54-.25.98,2.15c1.92-4.17,4.24-4.87,9.38-2.88,3.24-2.15,10.3-3.96,10.69.99,3.09-.03,6.71.98,3.93,4.01,0,.5-.06.98-.26,1.38-.64,1.26-23.68,5.8-27.33,4.31-12.04.88-25.89,1.8-38.16,1.52-44.47-1.02-88.92-15.49-128.56-36.04-4.01-3.4-8.41-6.57-13.19-9.51-8.77-6.12-16.99-12.91-24.66-20.39-.46,14.12-.14,28.28.95,42.49,40.04,32.83,91.86,53.48,143.97,57.54,68.59,4.74,144.31-4.76,199.56-49.81l2.68.52,6.98,1.1c2.08-1.42,6.28-4.13,8.08-1.35.46.71-2.3,13.99-3.06,16.25,2.62,1.45,0,8.82-3,8-6.02,7.39-9.69,16.06-11,26,.93.27.92.61,0,1-4.18,2.56-7.65,7.81-5,11,2.11,2.24.81,3.77-2,3-1.41,1.82-3.06,3.06-4.94,3.71.2,3.76-1.99,4.2-5.01,4.37,3.07,2.23,2.46,3.21.17,5.7-6.35,4.68-13.25,11.65-15.3,19.47l-5.53,3.1c-.14,4.61-4.41,7.95-9.06,6.51-2.02,3.82-3.97,5.95-8.6,4.95-1.17,4.3-2.27,5.58-6.74,4.69-.32,2.37-2.66,4.2-7,5.5v2c2.07,1.38,4.81,1.91,8.08,2.14s6.98.13,7.92-1.14c.91-1.93,2.09-1.93,3,0,3.33,1.99,7.02,1.81,10.8,1.44,4.78-.47,13.64-2.44,17.23-4.15,14.58-2.7,28.97-8.24,41.33-16.59,4.01-4.31,16.15-.97,15.31,5.57-.07.57-6.44,9.33-7.67,6.74.17-1.59-.74-3.76-2.5-2s-5.95,3.84-8,5c-7.05,3.98-14.53,6.51-22,9-10.08,3.36-29.63,9.51-41,7-4.54-1-10.77-.64-16-2-2.33-.6-5.17-2.36-8-2-1.58-1.31-9.02-8.73-10-9-.85-.23-2.15.23-3,0-2.27-.62-3.83-5.21-1-7,.22-.14.72.15,1,0,1.56-.86,3.45-2.28,5-3,5.84-2.7,11.65-4.75,17-8,14.48-8.8,24.36-17,34.5-30.5,4.64-6.18,7.95-11.4,11-18,5.61-12.13,10.29-25.95,16-38l2-8.5-5.5,2c-7.77,6.58-16.7,12.1-25,17-6.76,3.99-16.56,8.14-24,11-14.45,5.55-28.02,8.73-43,12-12.78,2.79-26.5,6.02-40,7-10.27.75-40.39,3.15-50,1-3.58-.8-10.11-1.67-14-1-.72.12-2.34.15-3,0-10.78-2.52-22.16-3.6-33-6-4.98-1.1-10-3.68-15-5-6.95-1.83-11.44-2.36-18-6-7.34-4.07-16.29-4.96-24-9s-14.87-9.23-23-13c-3.33-1.54-11.64-7.5-15-10-4.16-3.09-7.08-6.43-11-10-.79-.72-1.76-2.36-3-2-1.66,1.12-1.37,1.83-1.5,3.5-.64,8.07.5,16.85,0,25-.42,6.73-1.44,15.66-4,22,2.62,3.82-2.12,10.94-3,15-.51,2.34.16,3.08-1,6-1.49,3.74-2.85,7.39-4,11-.87,2.73-1.82,4.47-3,7-14.64,31.32-33.1,55.96-63.5,74.5-8.63,5.26-17.17,10.86-27,14-5.68,1.82-10.73,3.75-17,5-2.76.55-6.25,1.32-9,2-6.13,1.52-11.98.34-18,2-1.32.36-1.6-.91-2-1-4.53-1.02-9.79-.32-14-2s-8.98-3.11-7.5-8.5c.43-1.57,4.54-2.84,5.5-4.5,5.55-2.54,15.94-11.14,19.5-16.5.68-1.03,1.32-3.91,2-5,8.68-13.93,12.22-23.82,16-39,1.93-7.75,3.91-15.91,5-24,.23-1.72-.16-3.73,0-5.5-3.48,1.18-2.44,3.43-3,5.5s-4.6,7.62-5,9c-4.17,14.51-18.94,28.36-30.5,38.5-10.23,8.97-20.87,16.28-34,20-3.07.87-8.14,2.48-11,3-1.34.24-3.07-.16-4.5,0,.17,2.44-.24,5.09,0,7.5.04.36.95.63,1,1,4.15,32.68,3.44,67.24,0,100-.37,3.48-3.48,23.44-3,25,1.7,5.59-3.02,28.28-4,36-1.3,10.27-2.09,20.64-3,31-.18,2.04.47,3.62-1,5.5h-12c-.89-1.12-.72-3.87,0-5-3.24-1.31-2.99-14.48,1-15,.15-1.79.48-3.46,1-5-2.8-.56-2.72-2.1,0-3,.2-1.77.53-3.43,1-5l-3-4c-1.78-.18-3.44-.51-5-1-.45.48-.92.92-1.46,1.26-2.07,1.31-11.31-.43-14.52-1.04-28.04-5.3-57.52-11.94-84.33-19.91l-.69-2.32v-13c-.21-2.85,5.82-1.5,8.03-.92,33.02,9.71,66.45,17.07,100.28,22.08,2.15-.56,4.3-38.07,4.61-43.78,1.31-2.63,1.68-4.83,1-7.94-16.16-33.09-31.54-68.68-45.05-103.21-3.4-8.69-7.61-21.64-9.67-30.65-.76-3.36-.91-8.76,3.43-9.02,1.95-.12,7.73,11.91,8.5,13.5,14.38,29.94,29.57,59.88,45.7,89.02l.81-2.02c-1.34-17.81-2.51-36.04-3.51-54.69-.95-4.79-5.14-5.47-9.71-6.21-8.96-5.6-9.18-13.08,3.31-11.11,3.03-1.29,3.6-2.67,3.38-5.71-10.26-50.54-19.94-101.34-29.05-152.42-5.03-14.13-7.38-30.17-8.01-45.21-.2-.37-1.07-.62-1.44-.48-3.79,1.41-15.4,12.02-18.58,15.26-23.37,23.86-39.74,51.25-49.25,83.89-.68,1.67-2.94,3.94-4.76,2.61v-38l1-.5c-.72-2.1,1.6-3.64,2-4.5,4.64-5.65,8.68-13.16,12-20,.82-1.06,1.22-2.77,2-4,2.28-1.39,4.2-3.28,5.78-5.68,3.52-.38,6.86-.88,10.03-1.5-7.08-4.11-2.25-9.94,2.5-13.4,7.23-8.1,14.48-14.39,22.68-21.41,1.04-1.95,2.36-2.7,4-4,2.97-1.08,5.97-2.74,9-5,4.38-5.6,13.19-9.08,19.5-12,1.83-.85,3.26-2.22,5-3,1.41-.63,2.9-1.22,4.5-1,.29-2.06-1.74-3.16-3-4.5-.07-.08.63-.78-1-1.5-1.03-2.41-2.36-3.74-4-4-1.36-1.37-2.65-2.55-4-4-5.63-9.31,3.19-14.27,9.05-5.31.75-.3,2.05-.45,1.56.34-.71,1.16-2.39-1.82-.61-3.03-.68-1.04-.35-1.71,1-2l1.33-.91c-2.23-5.24-1.33-7.99,2.68-8.23,1.74-4.76,6.32-3.3,5.4,1.66,2.87,6.33,6.07,12.49,9.59,18.48,1.43-4.07,5.92,3.43,2.91,3.71l1.09.29c1.64-.58,3.3-1.25,5-2-1.34-3.69,4.11-3.91,6-3,.57-2.69-.14-5.93-2.12-9.69-2.02-15.56-4.69-31.12-8.03-46.7-.54-3.55-1.97-19.5-.17-21.58,3.88-4.49,7.41,2.22,8.51,5.69.17.53.97.53,1.8.29l2.26.25c1.17,1.65,3.79,16.77.74,17.75-.61,1.32-.66,2.74,0,4,2.81-.87,3.59,3.93,1,5-.81,2.51-1.53,5.06-2.14,7.66,2.29,3.02,3.7,6.67,4.24,10.93-.38-.81-.12-1.28.9-1.59,3.26-2.8,5.51,7.15,2,8-.96,1.91-1.14,4.58,0,2,3.38.88,5.96,9.77,3,12-1.41.41-.99,4.48,0,3,3.08-1.13,3.9,1.67,1,3l-.73,1.76c1.12,7.17,3.03,14.92,5.73,23.24,3.56.39,4.63,7.98,2,10l-.38,4.82c4.85,18.2,8.62,37.88,10.86,56.83-1.88,1.59-1.93,2.12.03,3.67,2.83,16.39,3.28,32.98,2.99,49.64,0,.29-1.14,2.55-1.72,2.01,1.33,27.37-7.88,55.51-19.35,78.81l-.44,1.22c1.81,3.41-3.67,8.69-6.34,11.12-10.86,7.38-4.2,4.61,4.77.55,73.51-33.32,72.58-126,62.84-194.34l1.73-1.33c.55-7.83,4.47.46,3.83,5,1.62-.44,6.48,7.15,6.99,8.68,1.06,8.34,3.12,16.45,6.18,24.32l2.12,1.8c8.56,50.05,11.47,102.97-8.4,151.12-4.33,10.49-15.33,37.14-27.75,39.35-.3.05-.63-.08-.98-.27-.05,1.92,1.8,1.97,3,1,.43-3.47,10.98-3.4,13-1,1.86-.13,3.52-.46,5-1l1.38-2.2c16.36-3.47,31.93-10.77,45.67-20.24l2.94.44c1.93-.19,2.9-.81,4-2-4.17-1.77.31-5.8,3-3,10.53-5.75,18.76-16.13,26.31-25.68,8.51-10.78,17.33-23.61,22.39-36.34,6.83-17.17,11.1-38.19,12.01-55.23l-.71-1.74c-2.69-.92-2.7-2.07,0-3,.28-.87.62-.86,1,0,1.14-4.52,1.74-12.28,0-17-2.93,0-2.8-3.34,0-4,1.12-1.77,1.12-2.23,0-4-2.66-.32-2.54-1.24,0-2,1.07-2.5,1.07-4.83,0-7-2.93,0-2.8-3.34,0-4-.67-.65-.79-1.49,0-2,.67-2.49,1.12-6.5,0-9l-1-2c-2.97-1.83-2.81-8.07,0-10,.73-1.63.4-3.3-1-5-3.12-.67-2.99-6.13,0-7,.71-.13.89-8.61,0-3-4.36,1.94-3.8-4.79-1-8,.71-.14.9-8.61,0-3-4.57,3.19-3.93-10.25-1-12l-.48-.69c.35-2.54.35-14.04-.52-8.31-2.73.88-3.73-.93-3-5.41-2.08-13.94-3.66-27.78-4.75-41.52l1.74-2.08c.83-2.15.12-4.94-1-7-3.46-4.62-4.17-13.78-4.53-19.94-1.03-3.77-.52-6.79,1.53-9.06.78-.63.72-5.15,0-2-3.74,2.67-4.34-4.83-1-6q.61-.89,0,0l-2.3-.36c-1.2-13.13-2.48-26.37-3.87-39.72l1.17-1.92-3.55-14.86c.04-1.26.58-2.3,1.55-3.14l-1.14-21.46c5.01-7.73,9.45,4.48,7.05,9.68,4.64,12.92,7.34,26.52,8.09,40.78l2.24.37c.96,11.93,2.55,23.89,4.74,35.88-.45,21.46,4.75,16.76,14.16,1.38,5.85-9.55,12.7-24.44,14.71-35.48,6.9-37.89,6.55-75.99,2.15-113.99l1.98-1.15Z"/>
  <path class="cls-22" d="M0,1216l3-3.5c7.51-23.06,16.17-43.68,31-63,7.17-9.34,18.69-23.29,28.5-29.5,1.56-.99,1.43-3,3-4,.44-.28,2.53-.71,3-1,1.11-.67,2.46-2.34,4-3l3.5,1c.18,2.1-.25,4.45,0,6.5,1.2,9.64,2.93,21.51,5,31,.57,2.6,2.57,7.01,3,9,.54,2.49.47,6,1,9,3.83,21.58,7.28,43.23,13,64,.23.83-.6.75,0,3,1.29,4.84,1.79,10.15,3,15,2.78,11.17,4.22,22.84,7,34,2.11,8.48,2.43,17.26,4,26,.07.38.94.63,1,1,.43,2.9-.4,5.07-1,7.5-1.81-.76-3.21.96-3.5,1-1.66.24-8.16-.34-8.5,0-.64,1.97.65,2.65,1,3.5.22.54-.17,1.33,0,1.5.19.19,1.03-.26,1.5,0,.69.38,1.29,1.57,2,2,1.72,1.04,3.57.61,5,1,.44.12,2.32,1.62,3,2,.27.15.78-.14,1,0,1.98,1.27,1.12,2.31,1.5,3.5.13.41.93.63,1,1,.56,3.12-.28,7.58,0,11,.62,7.66,3.37,16.49,2,24-.83,4.54,2.66,14.1,2,21-.03.36-.95.63-1,1-.23,1.73.15,3.72,0,5.5-1.94,2.12-4.63-5.77-5-6.5-11.27-22.09-24.27-43.36-35-65-4.55-9.18-7.97-19.11-13-28-1.08-1.91-1.17-1.1-2-4-.12-.42-2.2-2.35-3-2.5.24,2.04-.34,4.58,0,6.5s2.41,6.47,3,9c1.74,7.52,3.55,12.56,6,20,1.33,4.05,3.5,7.87,5,12,2.01,5.52,4.78,11.4,7,17,5.71,14.37,11.5,28.83,18,43,3.49,7.61,6.69,15.37,11,23,1.01,1.8,1.26,2.49,2,4,2.63,5.38,3.64,6.24,3,13-.03.36-.97.64-1,1-1.12,12.15-.85,29.11-4,40-.38,1.32,1.38,1.67,1,3-1.1.72-1.25,3.15-2.5,3.5-2.33.65-3.61-.95-4-1-13.36-1.76-25.18-3.15-38-6-15.99-3.55-32.17-7.28-48-11-3.84-.9-8.36-2.45-12-4l-7.5-1v-247Z"/>
  <path class="cls-22" d="M1024,1190v284l-.42,2.08c-27,5.91-55.25,11.38-83.08,13.97-7.75,1.31-12.77-.25-15.04-4.67-2.01-20.03-3.8-39.83-5.37-59.4,5.72-6.22,9.61-14.35,13.3-22.52,15.98-35.35,30.61-72.61,40.95-108.68-15.64,32.3-32.44,65.72-49.53,97.56-4.87,13.18-12.58-.41-7.55-7.7-.3-35.98,5.17-73.29,14.79-107.57,7.43-38.55,15.6-76.69,24.99-114.96,2.64-15.74,4.94-31.19,6.92-46.34,3.56-3.24,19.07,9.71,21.56,12.75,15.25,18.65,30.83,38.63,38.48,61.48Z"/>
  <path class="cls-19" d="M904,1067c1.39-4.62,3.74-8.32,7.03-11.1-.61-2.14,2.88-11.47,4.17-11.79,4.98-1.22,4.09,8.09,3,11.2-2.99,5.86-4.39,11.75-4.2,17.69.33.15.99-.2,1.5,0,7.94,3.08,17.23,7.02,25,11,28.45,14.56,52.03,33.03,71.5,58.5l12,18.5v29l-3-3.5c-9.24-21.68-23.26-40.16-38.5-58.5-6.44-2.18-9.66-10.82-17.5-11-.42.43.37,6.83,0,8.5-2.47,11.17-3.57,24.87-6,37-2.55,12.74-6.48,25.1-9,38-2.29,11.74-5.97,23.87-7,35-4.37,13.49-5.93,27.95-9,42-1.26,5.76-4.09,12.47-5,18-4.76,28.83-10.87,59.21-10,89,.57,1.08-.9,1.54-1,2-.45,2.02-.59,10.43,2.5,9.5.42-.55,1.16-.97,1.5-1.5.29-.45.7-2.46,1-3,3.31-6.04,6.97-13.01,10-19,10.51-20.78,21.95-41.31,32-63,1.38-2.97,2.71-6.17,4-9,1.39-3.06,3.01-4.51,4-8,.19-.69,3.28-3.31,4-2.5l-1,7.5-2,3,1,2-2,2c-1.18,6.35-3.32,14.29-6,20-4.74,10.12-6.76,21.19-11,32-3.55,9.04-8.13,17.67-12,27-3.62,8.74-7.22,18.53-12,27-1.54,2.74-5.4,12.32-7.5,13.5-1.19.67-1.21-.57-2.5,2.5-.59,1.95.95,2.72,1,3,1.25,7,.15,16.04,1,23,.99,8.05,1.74,18.45,3,26,.54,3.27-.94,6.87,2.5,9.5,3.97-.19,8.05.27,12,0,11.47-.78,24.73-3.03,36-5s21.47-3.85,33-6l13.5-3v12l-.62,2.21c-22.03,7.14-56.34,13.01-79.51,13.68-.79.02-1.6-.27-2.43-.59s-1.65-.79-2.44-1.29c-3.52.22-6.85.55-10,1,2.49,1.11,2.47,1.82,0,3,.46,1.57.8,3.24,1,5,2.95.21,2.76,2.06,0,3,.5,1.57.83,3.24,1,5,2.64.2,3.16,2.47.57,3.1.21,1.86.02,3.49-.57,4.9.26,1.74.59,3.41,1,5,3-.36,2.85,5.47,0,6h-13c-.17-2.44.24-5.1,0-7.5-.7-6.99-1.09-14.86-2-22-3.89-30.65-6.43-61.82-9-93-.42-5.1-1.24-11.75-2-16-.79-4.45.59-10.43,0-14-1.61-9.66,1.54-21.54,0-30,3.35-5.21,2.01-11.37,3-17,1.32-7.47,3.52-14.59,5-22s3.7-14.67,5-22c2.83-15.92,6.84-31.19,10-47,4.86-24.28,10.96-47.92,16-72,2.3-10.99,4.05-21.3,7-32,.32-1.15-1.6-2.03-1-4,1.65-5.44,2.78-10.11,4-16,.09-.43,1.93-3.63,2-4,.42-2.35-.3-5.5,0-8-.88-.74-1.61-1.82-2.5-2.5-2.27-1.72-6.49-3.84-9-5-3.94-1.82-8.57-5.7-12.5-7-4.02-2.27-6.77-6.06-8.24-11.36-5.04-2.53-9.87-5.26-14.5-8.2-3.04,2.26-4.33.4-5.96-2.39-8.04-.41-15.36-2.11-22.02-6.28-.23,3.57-1.67,6.85-4.31,9.82-1.67,7.11-2.96,14.44-3.88,21.97-3.65,1.67-4.44,4.43-2.36,8.26-2.62,2.73-5.89,7.4-4.15,11.54l-2.27,4.37c2.28,2.27-.35,10.43-1.74,13.44-2.31,2.35-4.99,5.39-4.52,8.47,3.28,2.67.48,9.43-3.37,9.74.7,2.93.73,5.73.1,8.4-4.35,3.5-4.97,5.48-1.86,5.91-1.63,4.64-3.36,9.34-5.19,14.08-3.83,2.06-4.49,3.96-3.74,8.18-1.93,6.69-5.97,16.14-11.73,19.29,2.66,2.62-1.55,11.07-5.17,10.66,1.18,2.22-3.87,14.05-6.66,14.46-5.31-2.78-6.64-.49-5.59,5.44l-1.13,1.92c-7.54,2.73-14.37,9.81-12.19,18.5-1.64,3.01-3.94,6.55-7.03,3.41-1.66-4.2-2.77-2.7-3.36,4.51-3.28,1.51-5.93,3.54-7.96,6.1l-2.36.4c-6.7,7.86-14.17,11.98-23.72,15.74-5.11,4.85-10,7.28-16.57,9.34-3.72,4.41-8.1,6.13-13.13,5.14-3.54,5.26-11.5,3.09-6.37-1.86l2.99-3.23c94.29-37.17,124.63-144.24,140.97-235.94,10.77-60.44,9.59-120.1,7.07-181.3,3.91-10,8.66,11.69,9.49,15.51,11.21,51.46,13.4,98.85,3.82,149.76-.27,2.12-1.04,9.84-.83,11.27.14.91,14.89,5.17,16.82,5.32l1.66,1.61Z"/>
  <path class="cls-25" d="M107,1512c.53,1.24.53,2.57,0,4-1.21,2.56-1,11.38-1,15-.4,1.66-.73,3.33-1,5H0v-48l1.16-1.82c34.47,10.71,69.36,18.61,104.67,23.7l1.17,2.12Z"/>
  <path class="cls-1" d="M1024,1502v34h-92v-6c-.74-1.64-.74-3.34,0-5-.65-1.73-.99-5.69.39-6.77,12.96.27,25.42-2.21,38.31-4.96,16.84-3.58,30.98-7.57,47.1-12.34,2.05-.61,5.45-1.36,6.2,1.07Z"/>
  <path class="cls-39" d="M1024,1486v16l-6.5,1c-10.29,4.91-21.4,6.36-32,9-9.44,2.35-19.31,4.28-29,6-3.95.7-9.34,1.7-13,2s-7.74-.22-11.5,0c-.02,1.66.02,3.34,0,5-.28.87-.62.86-1,0-.03-1.73.37-7.21,0-8-.14-1.8-.47-3.47-1-5-.07-.91.23-2.52,0-3-.18-1.77-.52-3.43-1-5,0-.97-.14-2.1,0-3,3.32-.31,6.65-.65,10-1,23.14-.2,47.04-5.4,68.5-10l16.5-4Z"/>
  <path class="cls-39" d="M101,1498c1.53.54,3.2.87,5,1,.55.26,2.11-.16,3,0,0,1.33,0,2.67,0,4-.51,1.56-.84,3.22-1,5-.23.48.07,2.09,0,3l-1,1-10.5-1c-31-5.85-61.23-12.03-91-22l-5.5-1v-12l12.5,4c22.14,4.83,43.67,10.53,66,15,6.99,1.4,15.21,2.7,22.5,3Z"/>
  <polygon class="cls-22" points="106 1536 105 1536 105 1531.5 106 1531 106 1536"/>
  <path class="cls-8" d="M914,1073c-2.04-.93-2.5-2.24-2-4.5.08-.35,1.93-2.66,2-3,.37-1.72-.37-4.28,0-6,.18-.83,2.82-4.17,3-5,.51-2.35-.36-5.94,0-8.5-3.3-.65-1.54,1.69-2,3.5-.1.4-1.92,2.65-2,3-.25,1.18.3,2.93,0,4s-5.68,4.88-6,6c-.19.67.24,1.52,0,2-.34.67-2.04,3.47-2.5,3.5l-.5-1c-2.72.23-1.68-4.43-1.16-6.47,8.32-32.18,14.19-64.85,12.02-99.09-5.09-61.14-12.27-122.72-21.54-184.76-12.82-126.26-25.9-251.29-50.25-374.95-9.81-49-23.67-96.88-45.05-142.16-32.61-69.05-97.8-138.99-178.3-126.64l-1.72-1.93c-2.41,2.65-5.67.07-6-3l-2.13.86c-4.47-4.92-8.26-8.04-14.68-10.3-59.86-39.41-143.79-33.92-208.06-5.23-168,74.98-228.6,259.36-244.16,429.77l-7.12,46.15c-6.98,72.17-25.64,143.27-46.14,212.71-12.77,45.98-23.92,91.5-27.92,139.31-2.5,29.79,5.64,74.07,22.57,99.14,6.09,6.11,10.63,12.64,13.64,19.59.86,1.21,2.19,2.33,2,4l-3.5,1c-1.37-1.66-3.82-2.76-3.5-5-2.33-.16-4.82-.38-5,2.5v5.5c-16.09-17.27-26.36-33.02-33-54.5-11.54-37.3-9.4-87.8-2-126,1.73-8.95,3.81-18.21,6-27,2.34-9.41,4.61-18.69,7-28,7.89-30.69,16.64-59.85,25-91,3.45-12.85,6.95-25.96,10-39,4.46-19.07,8.55-38.59,12-58,3.56-20.02,5.4-40.53,8-61,3.37-26.53,7.23-54.95,11-80,1.79-11.9,2.69-23.44,5-35,3.32-16.59,6.31-32.77,10-49,18.42-81.13,48.64-156.93,105-223,54.85-64.3,131.04-111.97,212.5-119.5,5.71-.53,14.49-.99,19-2,6.64-1.49,25.67.32,33,1,19.77,1.83,38.29,6.78,57,14,17.19,6.63,28.81,15.06,43,26,2.62,2.02,2.5,3.82,7,3,.38-.07.63-.95,1-1,11.41-1.66,22.01-1.65,33,0,42.39,6.38,79.3,30.95,107.5,63.5,37.2,42.93,62.57,101.06,78,154,11.8,40.49,17.92,83.37,27,125,22.79,136.12,31.21,278.89,52,417,1.98,13.17,3.62,26.87,5,40,.69,6.59.31,12.41,1,19,3.13,29.79,3.15,63.12-2,92-2.29,12.83-5.6,25.65-10,38l-2,6.5Z"/>
  <path class="cls-8" d="M58,1107c-3.74,7.03-8.99,9.84-15.5,14-2.54,1.62-3.84,7.68-8,10-.47.26-1.31-.19-1.5,0s-.63,3.85-2,4.5v2l5,5c-1.33,1.81-3.15,2.25-4.5.5l-4,3c-.72-1.15-2.72-1.35-4-1-1.44.4-3.31,5.27-6.5,4,8.51-13.49,20.34-25.72,32.5-36,2.62-2.22,4.58-5.82,8.5-6Z"/>
  <path class="cls-8" d="M3.01,1173c3.59-7.75,6.63-13.08,12-20l-1,5.5c-.53,2.13-5.78,7.19-6,8-.39,1.4.05,3.34-1,5l-4,1.5Z"/>
  <path class="cls-8" d="M71,1098c-2.31,2.96-4.57,4.07-7.5,6l-1.5-1c.78-.62,1.18-.77,1.5-1,2.3-1.68,4.57-4.49,7.5-4Z"/>
  <path class="cls-8" d="M96,1076c-2.05-.91-2.61-2.59-4-4l.5-1c2.3-.18,2.2,2.31,3.5,3.5v1.5Z"/>
  <path class="cls-11" d="M722,1304c-.41,7.31,4.61.25,5.5,0,1.81-.5,5.19.5,7,0,.38-.1,4.74-4.28,6-5,2.85-1.62,7.46-2.31,10-4,2.14-1.42,3.32-3.35,6-5,5.85-3.6,14.84-5.32,18.5-10.5,1.57-2.22,4.73-4.26,6.5-6.5l2.5,1v-3l7-3-1-3.5c1.13-.5.82-1.71,1-2,1.06-1.76,4.35-2.92,4-5.5l2,.5-1,4c1.16.3.51,3.43,2.5,2.5,1.43-.67,1.32-2.63,2.5-3.5-2.71-2.99.84-6.69,0-10.5,2.65.35,3.74-2.8,4-5l4-1v-2c2.14.08,3.73.41,5-1.5l-1-4c1.97-3.41,4.1-6.81,7.5-2.5,1.01-1.2,2.55-1.01,3.5-2.5,1.4-2.21.21-5.32,3-7v-1c-1.76-.96-1.08-4.05.5-4.5.62-.18,1.38.18,2,0,2.13-.61,2.31-4.32,3.5-5.5l-2-3,1-2.5,4-1c.28-4,6.12-8.44,7-12.5.54-2.48-.62-6.73,0-9,.09-.33,2.98-3.58,3.5-4.5l1,1c.34-.54,1.39-1.09,1.5-1.5.5-1.82.5-5.18,1-7,.17-.64,2.44-2.12,3-3v-.5c-2.55.37-3.65-2.15-3-4.5.39-1.41,6.59-2.76,5-6.5h-2l1-7h4c-.29-1.76,1.55-2.59,1-4.5-.29-1.01-2.84-1.43-2-5,.09-.38.87-.59,1-1,.19-.59-.18-1.37,0-2,.14-.49,4.72-5,5-6,.3-1.08-.26-2.83,0-4,.11-.49,2.83-3.69,2-4.5l-3-.5,4-7c-2.67-2.49-.06-4.67,1-7,.56-1.24-.34-3.95,3-3.5v-2h-2l1-6,4-1c-.55-1.61.93-2.11,1-2.5.37-2.09-.37-4.91,0-7,.05-.28,1.59-1.05,1-3-1.81-5.95.38-3.76,1-6,.23-.85-.23-2.15,0-3,.78-2.82,6.22-5.06,3-8v-1c.05-.17,2.33-2.45,2.5-2.5,3.23-.89,4.57,2.03,7,3,4.15,1.66,9.91,2.35,14,3,1.38.22,3.05-.14,4.5,0v4l3.5-2c.82,1.5,2.02.72,3,1,.47.13,1.32,1.54,2,2,3.54,2.4,7.13,5.64,11.5,6-.85,3.18,3.9,6.46,2,8.5l4,4.5c-5.04-1.67-8.28-3.56-13.5-5-2.69-.74-9.77-6.12-13-7-6.57-1.79-14.08-4.1-20-8-1.95.5-3.12-1.54-5-1s-1.94,6.43-3.5,7.5c-3.36,28.15-12.5,55.4-21,82-2.29,7.18-5.38,15.08-8,22-3.34,8.81-7.56,17.99-12,26-9.1,16.4-18.36,34.97-31,49-15.28,16.97-29.09,28.93-48.5,40.5-12.12,7.22-25.05,14.22-39,17-6.47,1.29-13.45,1.69-20,3-.39.08-.63.95-1,1-2.29.34-11.97.44-14,0-.32-.07-3.37-2.04-3.5-2.5-.25-.93.16-2.41,0-3.5,1.69.34,3.12-1.35,4.5-2,4.93-2.32,9.64-4.33,14-8,5.54-4.67,10.09-9.48,15.5-14,2.49-2.08,1.74-2.58,3-4.5.74-1.13,3.45-2.54,3-4-.92-.52-4.17-3.41-4.5-3.5-1.6-.44-3.88.85-5-1-1.57,1.4-3.96,1.39-3.5,4-5.6-.2-9.87,4.89-14.5,7-2.92,1.33-5.89,1.11-9,2-.56.16-1.45,1.85-2,2-3.48.96-7.99.25-11,3l-3.5-1c.28,4.04-6.27,3.24-9.5,4-3.4.8-5.89,1.45-9,2-1.64.29-6.27.24-8,0s-2.93-1.5-3.5-3c1.47-2.52,2.53-2.52,4,0,2.86-.37,5.86-.71,9-1l.29-2.13c74.69-8.48,118.64-79.16,150.01-141.42,1.49-2.15,2.6-3.7,4.81-1.28,2.38,2.61-16.5,51.11-18.12,54.57-16.81,35.7-36.69,68.54-66.23,95.3l1.24.96Z"/>
  <path class="cls-3" d="M612,128c2.43,1.89,2.23,4.15,1.86,6.92,4.59,8.37,10.13,31.53,7.3,40.16-2.54,7.75-6.22,3.89-8.58-1.73-31.43-41.63-88.61-47.97-135.81-31.96-149.27,50.63-239.96,187.2-290.39,330.17,23.44-47.5,48.06-95.27,75.59-140.61,63.71-104.94,161.63-212.04,295.44-181,23.95,5.55,58.16,26.47,57.5,53.44,11.03,2.58,13.43-13.44,13.54-21.76.24-17.63-3.72-32.93-11.51-48.56l1.07-2.07c2.12.21,3.31-.82,5.5-1,9.22-.74,25.67-.67,34,1,7.22,1.44,14.2,2.6,21,5,49.13,17.3,84.44,57.78,110.5,101.5,46,84.36,58.8,174.41,74,266,2.96,17.86,4.71,35.93,7,54,2.69,21.18,7.04,42.75,9,64,3.54,38.26,8.5,76.09,12,114,3.6,38.94,8.69,77.03,14,115,2.88,20.6,4.83,42.94,8,62,1.3,7.83,1.16,15.97,2,24,2.7,25.64,3.46,54.87-1,80-2.61,14.71-3.26,29.63-9,43l-1,7.5-3.5,1c-3.99-3.07-9.49-3.2-14-5-.62-.25-3.36-2-3.5-2.5v-1c1.89-1.81.72-5.29,1-8,.88-8.33,3.21-17.43,4-26,.49-5.29.16-11.96,1-17,2.03-12.22,2.27-45.33,0-59-3.25-19.56-5.67-42.48-12-64l-2-3.5c.17,5.14-.24,10.35,0,15.5,1.51,32.97,2.66,66.5,1,100-1.17,23.68-4.92,50.17-9,73-6.61,37.05-15.28,73.14-30,109-7.44,18.13-15.91,37.17-27,54-20.6,31.26-54.03,58.61-88,70.5-2.21.77-5.77,2.63-7.5,3-.8.17-3.84.61-3.5-1l5.5-2c36.42-32.15,60.73-74.38,77.5-118.5l10-32.5-2,2.5c-28.32,53.49-56.68,105.74-114.5,132.5-6.95,3.22-17.15,6.43-25,8-2.03.41-11.84,1.69-12.5,2-3.11.25-6.11.59-9,1-1.32.03-2.67,0-4,0-.99,0-2.01,0-3,0-.93,1.53-2.04,1.51-3,0-1.9-.4-3.9-.73-6-1-.56,1.91-1.44,1.91-2,0-2.94-.38-3.94-1.05-3-2l-.07-1.26c10.05-5.44,20.07-11.02,30.07-16.74l.03-1.26c5.1-4.46,9.75-9.37,13.97-14.74,0-1.54.61-2.18,2-2,.78-2.73,2.46-5.74,5-7,0-5.83,4.34-11.56,9-15,.66-1.26,1.65-1.86,2-3-.85-.31-.84-.64,0-1,.63-2.44,1.63-4.78,3-7-.42-.86.24-1.86,2-3,.06-.19.06-.81,0-1-.22-1.41.23-3.78,2-4,1.83-6.57,4.44-13.18,8-19-1.52-.38-1.19-1.38,1-3,1.15-2.44,2.04-5.95,3-8,.89-2.95,1.64-5.99,2.26-9.13l1.74-.87c-.51-2-.39-5.93,2-6-1.62-2.26-2.46-3.44,1-4-.71-2.75.29-5.75,3-9-2.8-3.02-.69-4.51,2-6,.12-8.42,2.19-18.07,6-26-2.47-1.86-2.02-4.26,1-5-.86-3.74-.53-6.74,1-9l-1.43-1.77c1.62-6.18,2.41-12.49,2.38-18.95l2.05-1.28c-.94-1.43-.94-2.43,0-3l.57-2.43c-2.33-1.16-3.04-8.32.43-8.57-.53-4.3-.2-8.3,1-12,.6-2.83.76-5.82.48-8.95-2.68-1.77-2-5.11.52-7.05-.58-2.24-.58-4.58,0-7l-.25-1.28c-2.32,2.78-1.55-2.95.25-4.72-.05-1.33.28-2.33,1-3-2.55-12.03-2.72-24.12-.49-36.26l-.51-1.74c-.46-.29-.44-.63,0-1l-1.79-1.6-.18-18.5,1.97-1.9c-.16-27.38,6.34-55.15,12.85-82.7,10.31-43.58,22.13-86.35,35.08-129,3.19-10.52,6.54-21.23,10.25-31.58,1.81-5.04,7.78-7.47,5.82.28l1.77,1.3c.2,12.69.16,25.92-.12,39.68,9.09,116.75,10.31,237.59-31.02,349.86,54.13-112.02,46.83-236.63,34.85-356.98-.45-5.06-.64-10.14,1.51-14.86-.87-8.28-.87-16.7,0-25-3.01-5.42-2.53-14.93,1-20,1.54-15.34,3.67-31.36,10-46l-1.19-.98c2.08-7.29,4-14.93,5.76-22.91l2.43-2.11,2.1-.45c18.1,30.24,29.16,64.17,36.9,98.45,2.37,2.73,3.71,6.39,4,10.98.32-46.98-11.03-96.91-31.89-141.19-16.29-34.45-32-69.05-47.14-103.83-11.51-35.7-22.58-71.57-33.22-107.63-19.31-58.62-48.01-113.56-97.6-151.18-4.62-3.5-15.13-7.38-20.68-5.33l-1.47-1.81c1.01,2.79-9.81.62-10.06.1l.06-3.1c-2.01-.34-3.91-1.81-5.7-4.4-62.75-38.26-132.51,13.36-175.26,62.5-38.73,44.53-73.86,92.62-107.52,141.31-37.65,50.37-75.01,101.77-111.76,153.34-16.8,23.58-31.86,47.41-42.09,74.5-15.83,41.9-18.21,80.65-18.67,122.74l1.67,1.42c-.28,7.84.13,15.68,1.22,23.51.78-29.67,9.41-57.01,21.61-83.87,2.11-3.78,19.76-27.08,22.75-27.01,2.25.05,3.46.58,3.78,2.99-.71,21.76.16,42.18,7.47,62.54,3.12,6.91,4.28,13.71,3.51,20.41,1.11,2.33,1.82,4.77,2.11,7.33-1.23,61.47,6,122.76,23.49,182.15l39.73,134.02c-8.7-51.62-20.85-102.56-36.45-152.82-11.24-45.28-20.17-94.38-20.66-138.12l1.79-1.56c-.5-2-1.12-14.31-.04-15,.42-.27.93-.41,1.46-.51,29.24,44.5,54.96,94.38,74.95,144.94l3.64,15.57c.8,10.07,3.28,20.59,4,30.5.32,4.47-.77,7.74,1,11.5.45.95-.31,4.06,0,5.5l1,.5c.74.66.72,1.37,0,2-.1,9.98,2.24,19.45,3,29,1.07,1.85,1.9,5.05,1,7,.76,4.74.31,8.83,1,13.5,1.45,9.76,3.2,19.98,4,30,.13,1.63-.81,4.8,1,5.5.61,2.67.94,5.67,1,9,.79,1.68-.57,8.95,0,11.5l1,.5c.73,1,.72,2.04,0,3,.03,2.49-.02,5,0,7.5l1,.5c.73,1,.72,2.04,0,3,0,2.25-.23,4.85,0,7,1.67.59,1.64,3.41,1,5,.25,3.17-.02,6.75,0,10,.28,4.49.62,8.83,1,13v4c1.53,2.19.78,4.72,0,7v2c1.31,1.11,1.32,2.9,0,4v4c1.86,3.11,1.13,8.77,0,12-.39,1.6-.72,3.27-1,5-.02.99.04,2.01,0,3,.49.52.91,1.07,1.08,1.68.74,2.66-3.71,27.55-4.91,32.13-8.77,33.38-28.07,64.95-56.17,85.18-.81.68-1.96,1.17-3,1-.04.66.08,1.35,0,2-.5,1.18-2.66,2.52-4,2-3.87,2.57-8.42,5.73-12.5,8-9.93,5.52-27.1,12.88-37.5,14-1.56.52-3.23.85-5,1-2.07.98-11.71.39-13,1-1.18,1.02-4.23.87-3-1,1.03-1.03,1.12-.74,1.5-1,7.63-5.17,13.76-13.44,17.5-21.5,4.79-10.34,9.69-20.47,13-31s7.05-27.51,8-38,3.07-41.74,1-51c-2-8.94-1.89-21.32-3-32-.6-5.77-2.8-11.47-3-17.5-12.13-57.71-25.35-115.7-39.66-173.98,5.37,37.95,12.28,75.53,20.73,112.73l1.9,14.87c1.01,3.1,1.02,5.89.02,8.38.55,1.17.68,8.41,1,10.5,4.24,28.19,5.82,63.41,1,92-7.52,44.65-30.86,85.97-78.5,99.5l-5.5-.5c.95-1.06,2.29-1.82,3.5-2.5,7.97-4.47,10.52-7.51,15.5-15l.16-2.05c12.64-21.64,17.97-46.58,20.45-71.29l1.39-1.66c.4-1.9.73-3.9,1-6-1.22-.52-1.45-1.31-1.46-2.45-.06-6.91-.08-13.86-.06-20.75,0-1.02.31-1.58,1.53-1.81-.42-1.59-.76-3.26-1-5l-1.2-.13c-.25-6.73-.83-14.14-2.83-20.63.51-5.34,0-9.79-.91-15.36-2.48-15.03-5.3-30.57-9.39-44.79l.33-5.09c-.93-1.99-.59-6.99-2-10-2.51-7.86-4.53-15.91-6.05-24.13l1.05-.87c-.19-2.6-.6-2.14-1-3-1.12-.4-1.13-2.44,0-3-.51-4.24-2.29-8.42-3-12-1.31.02-.83-1.13,0-2-.1-2.9-.93-4.71-1-7.5l-1-.5c-3.42-3.59-4.82-12.57-3-17-.11-.24-1-4.73-1-5-.74-.96-.59-2.91,0-4-.86-5.25-1.1-13.96-3-18-.86.16-1.99,0-2.06-.64-6.22-61.75-7.95-126.62-3.88-190.39l-27.49,107.44c-6.55,28.42-11.85,57.54-10.76,86.82.75,20.25,4.63,34.57,10.22,53.69.49,1.67.34,3.4-.04,5.08v1.5l-1,.5c-4.74-6.65-11.53-12.77-16-19.5-5.56-8.37-9.98-18.54-13-28-3.72-11.65-6.7-25.47-8-38-.91-8.7-2.34-25.83-1-35,1.54-10.55,2.25-23.35,4-35,2.86-19.01,6.26-37.77,11-56,1.9-7.31,5.57-16.13,7-23,5.99-28.82,15.79-56.95,23-85,7.08-27.56,13.56-54.28,19-82,4.1-20.9,6.27-41.45,9-63,2.89-22.78,7.7-46.34,10-69,15.9-156.96,75.53-335.03,233.5-410.5,61.66-29.68,135.37-38.45,199-11,10.15,3.37,18.14,12.16,28,15,.61.18,6.48,6.59,8.5,8Z"/>
  <path class="cls-54" d="M651,919c2.38,4.46,1.88,7.94,1,12,.73,1,.72,2.04,0,3,2.84,1.62,4.05,10.3,1,12,2.48,8.51,4.15,17.18,5,26l2.71,2.45c4.02,15.71,11.35,30.14,22.6,41.92l.69,3.64c2.56,1.43,4.89,3.43,7,6l2.63.06c4.58,5.01,10.83,7.92,16.89,10.74,6.14.25,6.4,4.26,6.54,9.29.11,3.9-.52,12.48-3.06,14.9,1.99,6.49.29,12.95-3.29,18.62-12.05,19.07-25.05,39.04-44.73,51-17.92,15.33-39.84,25.5-62.27,32.71-10.5,3.38-21.47,6.23-32.22,8.16-6.48,1.16-17.18,2.88-23.46,2.66-.69-.02-1.36-.52-2.02-1.15-3.42.3-6.75.64-10,1l-2.87,1.35c-31.64.46-63.46-2.17-93.64-10.65-16.25-5.79-32.68-11.67-47.49-20.7-.12-.05.45-.63-2-1l-7-4c-1.2-.55-1.77-1.28-4-2l-4-3c-.11-.24.18-.83-.5-1h-2.5v-2c-1.8.33-2.38-1.13-4-2l-7-5c-.7-1.11-.97-.93-1-1-3.22-3.02-6.56-6.02-10-9-.64-.67-1.32-1.27-2-2-2.05-.94-4.02-2.97-5-5-.79-.69-1.33-1.39-2-2-.8-1.03-1.47-2.03-2-3-1.57-1.85-.67-3.55-1-5.5-1.96-11.55-3.24-23.31-5-35-1.21-8.02-3.06-17.08-4-25-.32-2.69.91-6.19-1-8,.7-1.34,1.82-1.19,2.5-1.5,7.89-3.66,9.21-4.58,15.5-11,.38-1.59,2.43-3.51,4-4,9.59-11.29,14.25-20.89,18-35.5,1.34-5.23,2.69-10.72,4-16,1.11-4.44.61-13.5,2-16.5.72-4.02,1.8-7.65,3.93-1.53,51.07,40.8,106.91,59.84,171.16,43.73,44.43-11.14,67.78-35.84,97.9-68.6,2.64-1.74,3.6-2.04,4.01,1.4Z"/>
  <path class="cls-23" d="M617,227c3.47,5.5-5.51,4.33-9.63,3.12-81.37-33.32-151.62,48.33-198.33,106.4-19.54,24.29-38.46,49.26-56.4,74.52l14.93-1.06,2.42,2.01c.74-.49,1.49-.94,2.3-1.26s1.54-.59,2.28-.56c22.17,1.02,69.45,11.01,79.56,33.38,7.18,15.88-3.98,18.08-16.19,13.97-27.61-11-57.32-19.96-87.32-18.54-1.73.44-3.61.11-5.63-.99l-1.37,1.86c-6.48-1.06-11.51.25-15.11,3.93-20.16,29.9-41.34,59.01-63.53,87.33-.46,10.18-.13,20.95,2.14,31.42-.74,4.09-1.41,8.59-.14,12.46l2.21,3.79c5.05,36.59,10.6,74.66,17.02,110.78.71,3.99,1.75,7.85,3.67,11.46,7.58,50.12,34.17,91.4,70.37,127.84,52.8,53.14,124.08,106.83,201.2,74.34,51.15-21.55,101.76-63.39,135.37-107.76,26.22-34.62,35.85-70.46,44.3-112.43,8.48-42.15,14.42-84.17,20.17-126.32l1.67-2.68-.85-1.61c2.03-17.4,3.63-34.82,4.81-52.24-7.04-24.08-13.36-48.46-18.96-73.15l-2.53-.99c-18.99-71-51.94-144.1-115.51-185.7l.04-2.31c-3.59-1.72-7.46-5.28-3-8,1.69,0,5.16-1.72,8.5-1,.38.08,2.56,1.88,3,2,.85.23,2.15-.23,3,0,1.5.41,6.6,3.14,8,4,3.79,2.31,7.45,6.01,11,9,40.7,34.28,64.93,79.55,82.5,127.5,13.85,37.81,22.59,75.49,35,113,5.99,18.12,14.17,35.16,22,52,17.63,37.92,37.37,76.77,49,116,4.79,16.17,7.47,33.94,10,51,1.08,7.31.38,16.43,2,23v35.5c-1.15,1.37-1.92.13-2-1.5-.11-2.3.22-4.77,0-7-.75-7.64-3.21-15.77-4-23.5l-2.06-5.54c-6.09-38.83-15.96-77.54-33-113.05.89,6.95.33,13.57-1.7,19.87l-2.23.72c-.96,4.95-1.57,9.76-3,14.5-1.13,3.76-3.45,7.48-4,11.5-7.54,24.79-31.14,44.53-56.9,49.05-3.17,15.16-7.16,30.18-11.97,45.07l-2.13.88c-2.73,10.3-6.27,19.7-12.18,28.88l-2.82,1.12-2.19,8.06c-13.65,22.06-32.13,40.51-51.15,58.18-.73,5.36-1.59,12.69-1.75,19.37-.03,1.62-1.28,2.22-2.91,2.38-4.51,3.64-5.03-4.44-2.45-7.93-1.27-7.43-2.73-8.51-4.39-3.25-1.25,2.13-2.74,2.87-5.16,2.18l-1.64,3.07c-30.05,25.36-68.37,51.74-106.89,61.27-61.97,15.34-125.32-19.52-168.84-61.32l-.62-3.02s.21-.65-.5-1c-.5-.25-1.32.18-1.5,0s.22-.96,0-1.5c-.17-.41-.86-.61-1-1-.31-.85.52-2.2-1-3l1-4.5c-1.12.13-2.48-.21-3.5,0-.33.07-1.04,1.59-3,1-.4-.12-.61-.89-1-1-1.24-.36-2.25,2.14-4.5,0-.84.15-1.51-.09-2.18-.56-10.83-7.7-32.6-34.81-40.89-45.37-8.55-9.04-14.52-19.06-17.93-30.07l-2.99-1.55c-5.57-10.71-9.58-21.86-12.01-33.45l-2.3-2.11c-3.37-10.49-5.85-21.02-7.47-31.59-14.34-3.1-27.91-9.12-38.73-19.73l-1.5-4.56c-2.8.73-4.47-1.27-5-6-1.09.09-2.06-.19-2.96-.78-2.58-1.69-9.29-17.38-10.82-21.35-4.6-11.96-6.98-27.77-7.19-40.39-34.96,46.3-48.53,104.17-49.04,160.29-.18,2.08-.62,3.07-2.99,3.22-.43-6.31.58-13.28,0-19.5s-1.11-14.04,0-19c.66-2.96-.23-8.49,0-12,1.55-23.42,7.34-46.2,15-68,9.68-27.54,22.85-49.36,40-74,26.01-37.38,54.04-73.85,80-111,13.15-18.82,27.13-35.69,40-54,28.59-40.66,57.03-81.18,90-120,13.67-16.1,28.77-33.6,44.5-47.5,12.94-11.44,27.49-21.22,42-29,12.5-6.7,26.88-11.79,40-14,9.87-1.66,26.16-1.79,36,0,1.69.31,4.12.59,6,1,1.01.22,5.49,2.48,7,3,5.65,1.96,11.46,4.65,16,8,1.98,1.46,3.59,3.71,4.5,6Z"/>
  <path class="cls-15" d="M653,862c1.88-1.35,2.43-.78,1,1l-.36,2.4c2.13,1.15,2.58,6.31-.64,6.6-.92,2.65-.65,4.38.82,5.19-.73,8.4-1,16.82-.81,25.25l-2.01,1.56c1.51.79,1.02,1.75,0,3,1.94,3.97,1.95,8.03,0,12-2.07-1.51-2.07-.35-3.5,1-19.43,18.37-34.28,38.67-57,52-18.41,10.8-34.93,15.43-55,19-.38.07-.63.95-1,1-17.68,2.42-37.39,3.13-55,0-4.69-.83-9.47-.83-14-2-30.29-7.84-55.7-21.37-82-41-2.22-1.65-4.7-4.17-7-5-1.08-.39-.32-2.08-.5-3-1.79-.27-.74,1.45-1,2.5-.17.68-.98.45-1,.5.15-1.44-.23-3.13,0-4.5.4-2.41,2-8.96,2-11v-44c0-1.91-1.29-10.98-2-12.5-1.62-.54-1.61-4.36,0-5,.02-1.49-.01-3,0-4.5l1-.5c5.71,4.2,11.01,10.44,16.5,15,15,12.48,33.09,23.85,51,33,14.69,7.5,27.49,11.78,43,15,41.83,8.68,71.51-1.61,107-21,21.88-11.96,41.5-26.31,60.5-42Z"/>
  <path class="cls-22" d="M689,1173c-2.53,2.14-8.06,4.39-10.5,8-28.78,21.51-62.34,32.84-97,39-8.76,1.56-17.05,1.86-26,3-1.69.21-9.96,2.3-11,2-5.82-1.67-21.4,1.5-30,1-21.36-1.24-44.11-2.05-64-7-13.77-3.43-27.75-7.48-41-13-12.51-5.22-25.7-10.98-37-18-8.92-5.54-19.19-12.02-27-18-.7-.53-4.42-4.19-4.5-4.5-.46-1.67.23-4.92,0-7-1-9.3-2.74-25.44-1-33,.65-2.83-2.41-4.58.5-6.5.9.97,1.86,1.09,3,2,1.43,1.14,7.85,7.34,8.5,8.5,2.07,3.71,7.88,3.27,10,7,.72,1.27,16.28,12.41,19,12.5v2c6.32,2.87,14.14,5.47,20.5,9,7.31,4.05,20.98,9.34,29,12,9.29,3.08,18.82,5.85,28,8,5.99,1.4,12.76,1.84,18,3,2.45.54,16.27,2.29,18,2,3.5-.58,5.77.71,9,1,10.66.97,24.93-1.88,33,0,1.55.36,5.91-.82,7-1,5.6-.93,14.21.04,19-1,.34-.07,2.66-1.93,3-2,2.07-.45,6.16-.69,8.5-1l1.73-2.24c35.14-3.56,66.59-20.57,95.85-39.76,3.5-3.72,7.56-7.2,12.17-10.43,8.64-9.75,16.99-19.61,25.07-29.59,3.57-.95,4.63,3.99,4.15,6.73-3.51,19.85-7.84,40.45-13.49,59.15-1.53,2.52-7.75,9.74-10.49,8.15Z"/>
  <path class="cls-41" d="M234,682c5.77,6.91,15.15,13.17,23.5,17,4.35,2,8.27,3.25,13,4,1.38.22,3.05-.14,4.5,0-.55,1.61.93,2.1,1,2.5.44,2.43.42,5.57,1,8,2.06,8.63,6.06,17.58,7,26.5l3.62,14c8.72,58.84,15.53,122.51,18.38,181,.37,5.93,1.51,11.83,2,18l-2-6.5c-20.89-51.6-43.58-100.62-75-147l-2-5.5c-1.75-.23-.98,2.28-1,3.5-.07,3.5.05,7.01,0,10.5l-2.33-.45c-2.17-7.76-.38-14.95,2.33-21.55-.47-1.24-.9-2.48-1.19-3.76s-.56-2.5-.53-3.72c.72-26.46,2.17-52.96,5.73-79.19v-15.94s1.99-1.39,1.99-1.39Z"/>
  <path class="cls-22" d="M136,1082c-.55,1.6.93,2.11,1,2.5.31,1.81-.27,4.14,0,6,.05.37.92.61,1,1,2.57,12.86,4.7,25.5,8,38,.72,2.72-.28,5.07,0,6,4.74,15.59,5.71,29.68,7,47,1.11,14.89,4.02,32.89,1,48-1.17,5.86-.76,12.26-2,18-.07.34-1.93,2.66-2,3-.42,1.96-.54,3.88-1,6-2.15,9.91-6.27,21.92-11,31-1.12,2.14-1.34,3.48-2,5-1.71,3.91-6.77,6.02-7,10.5l-4,1c-.13-1.12.21-2.47,0-3.5-1.36-6.81-3.35-13.99-5-21-5.84-24.8-11.77-49.38-16-75-2.67-16.19-8.52-32.53-11-49-1.61-10.7-2.9-21.48-5-32-1.02-5.11-2.06-10.84-3-16-.15-.82-.19-3.31,0-4,.08-.31,3.97-4.18,4.5-4.5,1.14-.68,2.88-.68,4-1,.56-.16,4.35-3.55,6-4,6.82-1.86,13.16-6.15,20-8,2.72-.74,5.28-1.25,8-2,.55-.15,1.45-1.85,2-2,.84-.23,2.12.22,3,0,.55-.14,1.68-1.76,3.5-1Z"/>
  <path class="cls-17" d="M299,775c9.51,18.31,24.29,34.79,38,50.5,3.65,4.18,16.19,19.1,20.5,21.5.47.26,1.31-.19,1.5,0,.15.14.83,3.3,1,4s-.13,1.7,0,2.5c1.22,7.32,1.42,14.21,2,22,1.82,24.44,2.28,51.88-2,76-1.13,6.34-1.49,12.83-3,19-1.19,4.86-3.95,11.32-6,16-4.59,10.51-9.99,21.17-18.5,29.5l-5.5,2c.78-1.75-.95-3.18-1-3.5-.63-4.37-.44-9.55-1-14-.69-5.4-2.27-11.71-3-17s-.21-15.12-2-19.5c-7.8-59.63-15.46-119.72-22.98-180.27-.31-2.48-.81-8.11,1.98-8.73Z"/>
  <path class="cls-11" d="M653,862c2.04-1.68,4.61-3.25,4-6l7-3-1,6.5,2,4c-1.32,1.62-2.58,3.9-2,6,.24.88,1.95,1.39,2,1.5,3.79-.49,3.02,11.38-1,10q-1.44-2.86,0,0c1.02,1.27,1.68,2.7,1.98,4.29-.95,49.45-1.05,112.71,47.18,140.1-.47-5.2.5-10.35,1.84-15.39-.06-26.67-.03-53.35.08-80.03,1.32-4.81,4.84-2.11,6.06,1.45.67,6.35,2.15,12.69,4.86,18.58,1.48,1.2,1.66,2.66,1.67,4.4.03,6.18-.05,12.51-.67,18.6.08,7.62.96,16.56,0,22-.65,1.36-.88,2.5,0,1,1.72.65.99,3.94,1,5.5.08,10.83-.06,21.68,0,32.5l-1,3c2.86,1.15-1.48,3.96,1,5.5-.19.68-.73.38-1,.5-.45,1.72-.45,4.06,0,7-.26,5.13.19,10.35,0,15.5l-1,.5-.9-.13c-.19,4.06-.22,8.1-.1,12.13-.74,1.57.53,8.12,0,10.5l-1,.5c-1.27-1.06-1.27-.06,0,3-.23,6.51-.63,16.96-3,22-1.44,2.73-1.77,5.73-1,9-.38,1.71-.63,3.28-1,5-3.2,6.43-5.25,14.56-5.57,21.88-1.71,2.86-1.85,4.23-.43,4.12-.34,2.09-1.36,3.14-2,6-2.52,3.21-3.52,6.21-3,9-.3.64-.28,2.23-1,4-2.51.34-2.33,3.97-2,6-1.31,3.59-2.57,6.96-4,10-1.84-1.94.77-3.44,1-4.5.6-2.79-1.13-6.96,1-9l-1-2.5-5.5,3c-2.93.64-4.86-1.17-7.5-1-.36.36.34,4.28,0,5.5-.39,1.41-6.37,4.22-7.5,6.5l-4.5,1c-.66-2.94,1.13-5.44,3.5-7s3.4-1.37,6-4c1.16-1.17,2.82-2.08,2.5-4,1.09-.92,8.49-8.65,9-9.5,1.04-1.74.6-3.62,1-5,.33-1.13,1.74-3.93,2-5,3.81-15.88,6.36-32.28,10-48l-.5-5.5-7.5,8.5c-7.47,10.72-17.18,23.44-29,29.5v2c-8.91,4.47-17.42,11.05-26.5,16-6.67,3.64-13.71,8.11-21,11-9.57,3.79-19.41,6.87-30,10-8.37,2.47-13.62,2.82-22.5,4-.73-2.87-3.02-1.57-4.5-2-1.34-.39-1.77-2.64-1.5-4h-5v3l4,2h-5.5c-1.59-.62-1.37-2.87-1.5-3-.18-.18-.96.23-1.5,0-.87-.37-2.89-2.31-4-2-2.2,1.46-1.42,3.7-1.5,6-2.75.27-5.21.1-5-3-5.34.53-8.12-2.59-12.5,1-1.79-2.33-6.21.75-7.5-3,.42-1.07,1.59-1.22,3.5-.45,30.5-1.6,61.19-6.67,89.58-18.48,40.4-16.8,77.39-46.64,93.91-88.01l-.99-8.06c.14-5.44.27-9.56,1-14.5.35-2.35.03-6.77-2.5-7.5-.66-.19-1.5.23-2,0-6.84-3.18-14.86-6.8-19.5-13-2.57-2.93-4.9-4.93-7-6-14.42-14.87-20.98-28.36-26-48-.87-8.87-2.53-17.54-5-26-.2-4.07-.99-7.37-1-12,.81-1.03.75-4.63,0-3l-1-.5c-.01-3.83.02-7.68,0-11.5s-.02-8.01,0-12c.67-1.02.67-2.02,0-3,.09-7.49-.37-26.96,2-32q1.45,2.82,0,0c.63-1.33-.5-6.44,0-8.5l1-.5q1.42,1.02,0,0c-.07-.03.16-1.18-1-1Z"/>
  <path class="cls-8" d="M133,996l-1.5,4-2.5-4.5c.38-2.75-2.13-5.02-5-4.5-.23,1.69.34,3.96,0,5.5-1.11,4.96-1.21,9.93,0,16,.88,4.4,1.34,6.88,3,11,2.64,6.56.83,12.41,4,18-1.91,4.99,1.97,9.37,1,15-.48,2.77,1.45,5.67,3,8,.48,2.43-.57,2.43-2,3.5-2.66.79-4.55-5.74-4.93-8-8.27-48.38-15.24-96.69-16.11-145.91-13.59,51.13-17.46,105.35,7.53,153.13l-1.48,1.78c-1.55-.39-2.2-2.18-3-3.5-2.52-4.17-4.58-7.07-6-12-.35-1.23-3.84-2.12-1-5.5h-3c.24,2.52-1.6,3.37-4,3-.76,1.81.96,3.21,1,3.5.29,2-.2,4.42,0,6.5l-3-3c-27.43-65.77-2.64-140.35,13-202.5,4.98-19.78,11.26-41.12,15-61,.31-1.65-.79-3.75,1-5v-5.5c1.75-.23.98,2.28,1,3.5.13,6.6.21,13.41,0,20-1.12,35.84-4.02,74.66-1,111,.48,18.67.16,44.86,4,62,.64,2.88.44,14.3,1,15.5Z"/>
  <path class="cls-42" d="M133,1068s.22.6-.5,1c-1.9,1.06-4.85.51-5.5,2l-5,2c-.05.02.13,1.05-.5,1-1.56-1.05-1.79-2.89-2.5-4.5-.31-.71-.98-.45-1-.5-.56-1.2-.9-3.52-2-5.5-7.5-13.52-11.08-27.93-14-42-7.94-38.27,1.22-80.64,10-116l1-7.5c1.75-.23.98,2.28,1,3.5,1.09,54.52,5.52,107.46,16,158l3,8.5Z"/>
  <path class="cls-31" d="M299,775v8.5c6.37,34.8,8.48,71.4,13,107,2.53,19.96,6.58,41.93,8,62,.27,3.78-.19,7.71,0,11.5-4.35-10.65-3.62-28.05-10-40.5.66-2.7.76-5.11,0-8-.16-.59-1.75-1.67-1-3.5l-3,2.5c.43,2.97-.61,7.29,0,10,.72,3.2-.27,6.26,0,10.5l-1-8.5c-4.23-41.99-8.59-84.1-13-126-2.1-19.98-5.88-40.35-8-60.5l4,11.5c2.29,2.8,3.4,6.58,5,10,2.06,4.39,3.76,9.18,6,13.5Z"/>
  <path class="cls-53" d="M225,1154l-3-3.5c1.06-3.37-3.48-8.11-4-10-.72-2.61.33-6.65-1-10-.48-1.21-2.92-3.71-3-4-.18-.62.18-1.38,0-2-.39-1.34-2.64-1.77-4-1.5l-1-9.5-1,2.5c-2.29-4.87-2.86-17.08-4-23.5-1.41-7.91-3.46-16.12-5-24-5.93-30.36-13.4-61.41-16-93-.52-6.33-1.54-12.37-2-18-.2-2.5-.05-5.44,0-8,.02-1.22-.75-3.73,1-3.5.15,1.78-.22,3.76,0,5.5.05.37.96.64,1,1,1.7,15.5,4.45,29.39,8,44,3.15,12.98,6.68,26.14,10,39,5.8,22.46,10.13,45.1,15,68,3.28,15.44,8.47,34.27,9,50.5Z"/>
  <path class="cls-23" d="M528,1176c-.64-.07-1.35-.02-2,0-1.22,1.19-3.47,1.41-5,1-.11-.24.18-.84-.5-1-5.17.35-9.59.57-15,0-7.78-.82-22.47-.2-29-2-.55-.15-1.45-1.85-2-2-1.73-.48-4.92.3-7,0-5.84-.86-10.77-4.4-17-3-5.08,1.14-5.47-2.58-7-3-1.33-.37-3.66.37-5,0s-3.14-4.19-6-2c-5.33-5.32-12.16-4.39-18-6-2.56-.71-9.98-8.5-14-8l-8.5-6c4.9,1.95,10.26,4.66,15.5,7,15.7,7,33.42,13.39,50,17,25.44,5.53,50.63,6.16,78.5,6,3.51-.24,6.84-.57,10-1,11.71-.37,23.53-2.72,34.5-5,52.35-10.86,101.24-38.87,128.5-88.5,4.47-8.14,4.76-9.07,5-18.5l3,8.5c-2.72,3.27-3.08,7.63-5,11-1.1,1.93-6.84,8.44-7,9-1.65,5.58-2.57,6.69-6,11-5.77,7.26-12.87,14.04-18,21-5.02,6.81-8.5,5.7-14.5,9.5-1.43.9-2.43,4.55-4,5-7.78,2.22-14.14,10.75-22,13-.33.1-2.24,2.19-4,3-3.73,1.73-8.15,3.21-12,5-3,1.4-5.03,2.16-8,3-7.16,2.03-13.48,6.1-20,6-.46,0-6.46,3.68-8,4-3.98.82-9.56.26-13,1-.34.07-2.66,1.93-3,2-4.06.88-9.53-1.62-13,2-7.97-1.56-20.47,3.09-29,2-.14-.02-.67-.79-2.5-1Z"/>
  <path class="cls-8" d="M167,1189l1,5c-.58,6.65.11,16.05,0,25-.38,1.93-.71,3.93-1,6-.27,11.04-2.77,21.31-5,31.5-3.34,15.24-7.89,29.81-17,43.5-2.56-1.24-.32-2.87.5-4,5.19-7.14,5.77-13.45,7.5-21.5.26-1.19,2.49-3.11,3-4,3.12-5.46,2.02-12.76,6-18-1.48-3.81.98-6.3-1-10,2.96-6.68,3.36-15.61,2-23l2-2c1.17-16.38-.59-30.93-2-47-3.96-3.18-3.96-4.82,0-8v-1c-2.82-2.63-1.6-5.82-2-9-.35-2.77-1.58-7.22-2-10-.65-4.39-1.12-10.94-2-15-.07-.34-1.93-2.66-2-3-.43-1.99.43-5.01,0-7-.07-.34-1.93-2.66-2-3-.25-1.18.3-2.93,0-4-.15-.55-1.83-1.43-2-2-.54-1.8,1.45-3.88,2-5.5,1.56,3.32,1.31,5.78,2,9.5,2.83,15.2,6.67,30.53,9,46,1.22,8.1.97,17.3,3,25,.61,2.33-.14,5.22,0,5.5Z"/>
  <path class="cls-11" d="M618,1296c.16-.43-.08-1.37,0-2l5-1v-5l6,1c-.27-2.22.82-4.42,2.5-6h1c3.66,3.99,5.49-3.57,7-4,2.01-.57,2.83,1,3,1,.33,0,.62-.93,1-1,.95-.16,2.19.22,3,0,1.57-.43,2.27-3.55.5-4.5,2.35-2.24,5.89-1.77,8-5l-1-2c2.05-4.52,6.99-7.67,8-12.5,3.52-.29,5.86-3.52,9-5.5l-3-2.5c-.17-3.24,2.42-3.24,5-3,.26-2.54.13-3.98-2-5.5v-1l4-2.5v5l5-2c-2.71,5.19-5.98,10.31-9,15-2.58,1.41-4.15,4.18-5,7-.17.34.09,1.38,0,2h-2c-3.24,2.84-5.87,6.24-7.88,10.18-2.33,1.24-5.76,3.08-6.12,5.82-6.95,6.17-15.65,11.95-24.5,16-1.78.82-3.81.95-5.5,2-.08,1.47-1.53,1.43-2,0Z"/>
  <path class="cls-23" d="M328,1199c2.74-.72,2.35,1.88,2,3.5-1.89,8.75-2.42,18.11-4,27-.63,3.55-1.25,6.84-3,10-3.01,5.42-2.89,8.33-4,14-.67,3.4-1.57,5.92-3,9-.7,1.5-1.27,3.8-2.5,4.5-3.17,1.8-1.61,2.27-2.5,5.5-.3,1.1-5.68,4.88-6,6-1.08,3.78-4.57,8.67-8,10.5.44,3.59-17.94,23.55-19.5,24-3.95,1.13-2.46,1.62-5,3-1.01.55-3.2,4.74-4.5,2,27.75-23.17,48.52-55.88,56-89.5,2.02-9.07,3.58-19.9,4-29.5Z"/>
  <path class="cls-8" d="M137,1023c1.5,3.18,1.37,6.69,2,10.5.33,2.02,1.07,3.27,1,6.5-.05,2.13.84,3.5-2,3,.53-1.9-.41-2.38-1-3.5-1.64-3.1-1.24-3.24-2-6-.15-.55-1.85-1.45-2-2-.36-1.29.24-3.5,0-5l4-3.5Z"/>
  <path class="cls-11" d="M697,1200c-3.57,5.81-6.13,12.44-8,19-.3.65-.55,2.57-1,3.5l-1,.5c-.35-1.05-1.3-1.44-1-2.5,2.78-3.84,3.05-8.6,4-13,.32-1.51,3.03-4.55,4-8,.33-1.16,3.01-1.86,4-2.5-.29.61-.5,1.8-1,3Z"/>
  <path class="cls-11" d="M623,1298c.66,0,1.34-.01,2,0,1.9.4,3.9.73,6,1,.99.02,2.01,0,3,0,.56,3.15-1.55,1.81-3.5,2-3.2.32-3.43.58-6,0-1.4-.31-3.45.21-5,0-1.68-.84-1.18-2.28-1.5-3,.64-1.31,2.31-1.31,5,0Z"/>
  <path class="cls-23" d="M329,1179c2.53.76,1.93,2.53,2,4.5.15,4.23-1.8,6.77,0,11l-1,2.5-1-1c-.84-.93-.75-3.72,0-5v-12Z"/>
  <path class="cls-8" d="M146,1068c.24,3.27,3.95,22.77,5,25-2.76-.77-1.68-2.75-2-4.5-.5-2.71-1.06-5.66-3-8l1-4c-.94-1.75-2.74-3.34-3-5-.27-1.75-.8-4.17,2-3.5Z"/>
  <path class="cls-11" d="M543,1181l-1.5,3-2-1-5.5-.5c-.49-1.57,1.93-3.02,3.5-2.5.42.14.63.93,1,1,1.35.24,3.07-.16,4.5,0Z"/>
  <path class="cls-11" d="M687,1224c-.38,1.14-1.07,2.59-2,3-1.38,2.22-2.28,4.63-3,7-.04.35.08.73,0,1-2.74.72-2.35-1.89-2-3.5.08-.38.88-.59,1-1,.36-1.22.27-3.19,1.5-4.5l4.5-2Z"/>
  <path class="cls-23" d="M325,1097c-.02-.05-.83.18-1-.5-.43-1.77-.04-6.27,0-8.5.02-1.21-.77-4.21,1-4,.18,1.91-.72,4.2,1,5.5l-1,7.5Z"/>
  <path class="cls-23" d="M350,1114c1.95-.33,2.79,1.37,4,2.5,1.85,1.73,3.59,4.59,6,4.5.09.63-.16,1.59,0,2-1.96.33-2.78-1.37-4-2.5-2.2-2.04-3.97-4.38-6-6.5Z"/>
  <path class="cls-11" d="M668,1302c-.47,1.57,1.83,2.47,0,3.5-1.61.9-3.31.39-5,.5-.04-2.71,2.5-4.51,5-4Z"/>
  <path class="cls-22" d="M329,1147c1.06,2.53.67,6.37,0,9v2l-1-.5c-.02-4.17.03-8.34,0-12.5l1,.5c.14.53-.14,1.14,0,1.5Z"/>
  <path class="cls-11" d="M667,1194c-.12-3.26,3.03-4.2,5-1.5-1.27,1.91-2.86,1.58-5,1.5Z"/>
  <path class="cls-23" d="M368,1129c-2.81-1.51-4.85-1.61-7-5h1.5c1.59,2.14,4.48,2.24,5.5,5Z"/>
  <path class="cls-23" d="M390,1143c-3.47-.52-2.15-.42-4.5-2-.41-.27-2.46-.26-2.5-2,.68.31,1.29.37,2.5,1,1.53.79,4.06.88,4.5,3Z"/>
  <path class="cls-23" d="M318,1039c-.39-2.43-.78-4.17-1-7l1,.5c.73,1.91,1.34,3.63,1,6l-1,.5Z"/>
  <path class="cls-23" d="M374,867c-.01,1.21-.27,4.43,0,5l-.5,1c-2.17-1.43-1.44-3.6-1.5-6h2Z"/>
  <polygon class="cls-23" points="329 1169 329 1162 330 1162.5 331 1165.5 329 1169"/>
  <path class="cls-23" d="M348,1112h-1.5l-3.5-3.5v-1.5c1.95,1.7,3.26,3.14,5,5Z"/>
  <path class="cls-23" d="M329,1156v-9c.02.05.83-.18,1,.5.52,2.11-.36,5.63,0,8l-1,.5Z"/>
  <path class="cls-22" d="M620,1296c.14.06.31,1.68,2.5,1l.5,1h-5c-.04-.1-1.41.17-1-1.5.17-.68.98-.45,1-.5.63.09,1.59-.16,2,0Z"/>
  <path class="cls-23" d="M350,1012c-1.35,1.59-2.61,2.58-4,4l-1-.5,4.5-4.5.5,1Z"/>
  <path class="cls-23" d="M327,1123c0-.99-.02-2.01,0-3,.04-1.66-.03-3.34,0-5h1v7.5l-1,.5Z"/>
  <path class="cls-23" d="M326,1112c-.01-.99-.02-2.01,0-3,.04-1.66-.03-3.34,0-5h1v7.5l-1,.5Z"/>
  <path class="cls-11" d="M526,1176c-.61,2.24-2.44,2.18-4.5,2-.68-.16-.39-.76-.5-1,1.73-1.3,2.98-.93,5-1Z"/>
  <path class="cls-23" d="M375,923c-1.66.25-.96-1.35-1-2.5-.06-1.83.04-3.68,0-5.5,1.66-.25.96,1.35,1,2.5.06,1.83-.04,3.68,0,5.5Z"/>
  <path class="cls-23" d="M265,1321c-.08.65.04,1.34,0,2l-2.5,1-1.5-1c.46-.3,1.6-1.47,2.5-2h1.5Z"/>
  <path class="cls-8" d="M127,1071c-1.47,3.36-3.36,1.27-5,2l.5-1c1.59-.22,2.48-1.5,4.5-1Z"/>
  <path class="cls-8" d="M145,1062c.11.92-.24,2.49,0,3l-1,1-1-6h1l1,2Z"/>
  <path class="cls-23" d="M327,1130h2v4.5l-1,.5c-.18-2.21-.81-3.23-1-5Z"/>
  <path class="cls-11" d="M695,1189l-1,3h-2c-.29-1.9,1.1-3.29,3-3Z"/>
  <path class="cls-11" d="M677,1303h-1.5c-2.98-1.96.46-4.11,1.5-1.5v1.5Z"/>
  <path class="cls-8" d="M136,1018l-1-.5v-3l1-.5c.49,2.99,0,2.47,0,4Z"/>
  <path class="cls-23" d="M329,1175v-4c2.67.94,2.67,3.06,0,4Z"/>
  <path class="cls-23" d="M379,1137c-1.91-.62-2.9-.5-4-3h1.5l2.5,3Z"/>
  <polygon class="cls-23" points="313 995 313 990 314 990 314 994.5 313 995"/>
  <path class="cls-22" d="M329,1196h-1c.03-1.49-.02-3,0-4.5l1-.5v5Z"/>
  <path class="cls-23" d="M341,1105c-.54-.49-2.95-1.82-3-2.5l1-.5,2,1.5v1.5Z"/>
  <path class="cls-22" d="M211,1345l-.5,1h-4.5c2.32-1.09,2.31-.71,5-1Z"/>
  <path class="cls-22" d="M193,1347c-.05.02.18.83-.5,1-.97.24-2.4-.15-3.5,0-.55-1.94.71-1.71,1-2l.5,1h2.5Z"/>
  <path class="cls-23" d="M314,1003c0-.66-.02-1.34,0-2,.02-.99-.01-2.01,0-3h1v4.5l-1,.5Z"/>
  <path class="cls-22" d="M106,1499h-4.5l-.5-1c2.84.12,2.85-.01,5,1Z"/>
  <path class="cls-8" d="M142,1050v2l-2-1.5,1-2,1-.5c.02.66-.11,1.42,0,2Z"/>
  <path class="cls-22" d="M108,1508v-4.5l1-.5c.01,2.89-.05,2.98-1,5Z"/>
  <path class="cls-22" d="M107,1516c.1-1.31-.15-2.71,0-4,.09-.75.12-1.1,1-1-.21,2.77.06,2.75-1,5Z"/>
  <path class="cls-22" d="M939,1500l-.5,1h-9.5c.07-.42-.11-.85.5-1,3.17-.02,6.34.03,9.5,0Z"/>
  <path class="cls-22" d="M930,1509c-.95-2.01-1.02-2.11-1-5l1,.5v4.5Z"/>
  <path class="cls-22" d="M931,1517c-1.06-2.25-.79-2.23-1-5l1,.5v4.5Z"/>
  <path class="cls-22" d="M932,1530l-1-.5c-.02-1.5.03-3.01,0-4.5h1c-.02,1.66,0,3.34,0,5Z"/>
  <path class="cls-35" d="M618,131c.5.23,2.55,5.49,3,6.5,3.06,6.85,7.05,17.04,8,24,.99,7.26,2.08,21.6,1,29-.05.37-.92.61-1,1-.38,1.9-.5,4.07-1,6-2.13,1.99-3.8,5.89-6.5,7.5-.22.13-.69-.14-1,0-.43.2-.64.92-1,1-2.55.57-4.38-.7-6.5-1-.38-.38.3-6.83,0-8.5-.35-1.98-5.53-12.04-7-14-9.06-12.07-22.79-20.77-36.5-26.5-5.38-2.25-10.16-3.5-16-5-29.07-7.47-58.21-6.1-87,1-11.57,2.85-27.75,8.92-39,14-84.57,38.17-139.23,121.81-183.5,199.5-19.82,34.77-36.28,68.17-54,103-1.43,2.82-2.48,6.25-4,9-.9,1.63-2.02,3.72-4,4.5l3-13.5c18.43-45.02,36.5-90.99,62-133,51.41-84.68,130.77-164.96,227.5-195.5,13.24-4.18,28.52-8.11,43-9,32.65-2.01,80.18,12.98,97.5,42.5l3,5.5c-.75-1.83.85-2.92,1-3.5.67-2.54,1.34-7.24,1-10-.05-.37-.95-.63-1-1-1.29-10.11-1.49-20.69-7-29v-7.5c1.91,1.34,4.16,2.15,6,3Z"/>
  <path class="cls-22" d="M650,1298c-3.14,1.48-5.15.92-9,1l.5-1h8.5Z"/>
  <path class="cls-13" d="M799,704c-1.73-.46-2.18-1.16-1.89-2.75-1.66,8.68-2.76,17.48-3.32,26.41-.1,1.58-1.15,2.23-2.79,2.34l-1-6c1.13,2.73-2.69,5.45-3,6.5-3.87,13.09-8.78,25.47-12,38-4.75,18.48-10.98,36.28-16,54-4.07,14.35-7.57,27.95-11,42-4.66,19.1-9.12,38.6-13,58-2.79,13.94-6.74,30.43-7,45-.03,1.58.74,4.84-1,5.5-.08-8.02-.53-15.54-1-23l-1.49-2.62c-2.13-43.58.31-88.28,4.26-132.24,1.5-16.69,3.11-34.39,6.01-50.82.68-3.85,1.77-7.69,3.23-11.31.55-5.48,4.26-15.26,6-21.5s5.09-15.09,6-21c.26-1.69-.18-3.74,0-5.5,1.12-.13,2.47.21,3.5,0,17.11-3.42,31.55-13.93,43.5-27.5l12-19.5c-1.87,13.77-6.43,26.59-8,40.5l-2,5.5Z"/>
  <path class="cls-17" d="M229,676c2.41,4.63,2.36,9.71,2.08,14.81-5.96,26.78-10.99,55.2-10.02,83.12l-2.06,3.07c-.28.87-.62.86-1,0-.09-4.6-.18-6.62-2-10.5-3-6.4-4.14-12.21-6-19-1.37-5-3.46-10.69-4-16-1.21-11.9-.76-23.67-1-36-.02-.85.45-3.5-1.5-2.5-.5.26-2,1.89-2.5,2.5-5.51,6.78-13.87,13.2-16,21.5h-2c-3.24,9.17-7.81,18.38-11,27.5-2.46,7.05-5.77,16.86-7,24-1.63,9.47-3.41,20.51-4,30-.36,5.77.26,11.72,0,17.5-4.09.08-2.56-3.09-3-5.5-.85-4.7-3.73-29.82-2-33.5,2.6-5.53,1.53-21.82,2-29.5,1.07-17.35,4.98-35.71,9-52,7.92-32.1,21.38-57.81,41-86,.26-.38.26-2.47,2-2.5.37,5.68-.51,11.9,0,17.5.03.36.95.63,1,1,1.05,8.24,2.04,13.38,4,21,2.5,9.72,8.16,21.25,14,29.5Z"/>
  <path class="cls-37" d="M370,412c-5.3-.14-9.87.47-14.5,1-2.06.24-4.39-.16-6.5,0,.41-1.9,2-3.06,3-4.5,11.73-16.92,25.02-34.07,38-51,14.19-18.51,29.44-37.22,45-55,33.55-38.33,71.88-73.13,121.5-81.5,1.69-.28,4.2-.9,5-1,10.49-1.3,23.69,1.64,33,4,5.03,1.28,12.16,4.25,17,5,1.53.24,3.39-.16,5,0l.5-2,1,2,1.5-1c1.1.63,6.56,2,7.5,2-.59,3.35,1.19,5.41,3,8l-2.09,1.55c-80.84-27.59-151.07,36.39-199.54,95.62-19.41,23.72-39.73,50.03-54.79,75.46l-3.58,1.36Z"/>
  <path class="cls-20" d="M791,730c2.12-4.51,1.71-18.05,3-24.5.47-2.36,1.45-5.64,2-8,.46-2-.77-4.65,3-4.5l-.5,3c.78,2.15.66,5.45.5,8-.41,6.51-.9,12.95-1,20-1.23,7.92-1.24,17.06,0,25,.47,32.12,5.06,63.35,7,94.5,3.79,60.8,3.35,124.45-9,181-3.89,17.81-8.88,35.38-15,53-7.25,20.87-15.15,40.52-25,59-1.04,1.96-1.89,5.23-3,7-.51.81-2.02,2.19-3,2.5l9-23.5c20.68-57.93,32.81-120.97,36-185,2.17-43.53.01-86.96-2-130-.82-17.53-3.59-38.02-2-55,.4-4.22-.89-20.6,0-22.5Z"/>
  <path class="cls-16" d="M219,777c1.35-2.81,3.32-.4,4.75,1.59.65,4.42,2.07,6.89,4.25,7.41-.25,6.48-2.6,16.48,0,22,.64,1.35.65,25.19,1,29.5.03.36.96.64,1,1,3.12,29.67,6.61,56.83,13,85s14.9,56.4,23,85c8.31,29.36,13.65,59.33,19,90,1.61,9.25,4.01,19.58,5,29,2.28,21.65,2.8,44.91,1,67-.12,1.44-1.93,5.23-1,8l-2,4c-.5.99-1.93-.74-2-1-.19-.7-.15-3.18,0-4,.07-.38.93-.62,1-1,6.1-32.78,1.84-70.2-6-101-2.21-8.68-5.47-18.28-8-27-8.51-29.33-17.35-57.95-26-87-7.3-24.52-13.89-49.55-19-75-4.38-21.85-6.29-43.95-8-67-.03-.36-.98-.65-1-1-1.33-21.61-.56-43.43-1-65.5h1Z"/>
  <path class="cls-12" d="M165,607c-5.07.45.75-4.64,1-5.5,2.87-10.06,18.39-29.11,25-39,26.92-40.29,54.66-82.51,84-121,2.8-3.67,5.87-7.18,9.5-10.5,1.86,1.24,1.1,1.88.5,3.5-6.05,16.4-22.06,35.7-32,50-26.99,38.83-53.58,79.17-83,116-1.64,2.06-4.97,3.67-5,6.5Z"/>
  <path class="cls-52" d="M752,267c-1.37-.69-3.1-2.3-4-3.5-1.05-1.4-2.06-4.6-3-6-19.66-29.3-56.73-64.12-90.5-74.5-5.19-1.6-12.78-3.73-18-6-.74-.32-2.26-1.41-3-2-1.05-.84-1.79-1.53-1.5-3l6.5-2c1.67,2.31,2.38.14,3,0,3.22-.72,11.81,2.06,15,3,32.49,9.54,62.48,40.9,81.5,67.5,5.09,7.13,10.09,14.2,13,22,.56,1.49,1.29,2.82,1,4.5Z"/>
  <path class="cls-34" d="M855,730c-.59-.61-2.94-3.28-3-3.5-2.85-10.38-4.91-21.62-8-32-1.42-4.76-4.74-10.39-6-15-2.97-10.9-6.76-18.65-12-29-2.22-4.38-4.92-8.88-7-14l-3-4.5c.37-1.91,1.85-6.03,2-7.5.64-6.17-.46-13.22,0-19.5l3,3.5c8.63,17.53,14.65,35.25,20,53,3.44,11.43,6.65,23.1,9,35,2.19,11.1,3.83,21.99,5,33.5Z"/>
  <path class="cls-18" d="M837,458l-3-3.5c-7.73-19.56-16.18-40.36-24-60-7.56-18.97-15.38-39.43-23-58-3.22-7.85-6.85-15.96-10-24-.61-1.56-2.69-3.09-2-5.5,2.37-.32,3.02,1.86,4,3.5,1.13,1.87,2,4.14,3,6,21.6,40.34,39.7,86.46,53,130l2,11.5Z"/>
  <path class="cls-23" d="M719,1128c-1.85,8.58-4.58,17.37-6,26-2.12,1.79-2.76.55-2-1.5.38-1.02,2.76-1.5,2-4-1.91-6.28,3.06-11.31,3-18l3-2.5Z"/>
  <path class="cls-23" d="M726,1066c.4,3.03.04,9.8-1,12l-1.5-4c.65-3.6.94-8.84.5-11.5-.2-1.22.14-2.71,0-4l2-1.5c.26,2.88-.37,6.21,0,9Z"/>
  <path class="cls-23" d="M689,1219c-.4-2.08.38-3.64,1-5.5.73-2.19,2.08-4.81,3-7s1.57-5.36,4-6.5c-2.64,6.28-5.45,13.39-8,19Z"/>
  <path class="cls-23" d="M650,1278c-2.38-.71.16-2.89,1-3.5s2.82-2.12,3.5-2.5c.47-.26,1.31.19,1.5,0,.29-.29,2.09-6.08,3-7.5,1.23-1.93,3.29-1.25,5-2.5-2.46,6.13-8.68,11.28-14,16Z"/>
  <path class="cls-13" d="M798,749c-1.72-.65-.99-3.94-1-5.5-.03-4.66-.04-9.34,0-14,.01-1.56-.72-4.85,1-5.5-.12,8.3-.12,16.7,0,25Z"/>
  <path class="cls-23" d="M721,1114c-.2.43-.54,6.92-1,9l-1.5-4c1.01-1.39.31-3.64.5-5.5l2,.5Z"/>
  <path class="cls-23" d="M708,1169c-4.8-1.98.79-6.84,3-9-.68,3.06-1.81,6.48-3,9Z"/>
  <path class="cls-23" d="M707,1173c-.71,1.73-1.25,3.95-2,6l-1-.5c.04-2.84-.86-6.26,2.5-6.5l.5,1Z"/>
  <path class="cls-23" d="M671,1253c-1.15,1.79-4.69,6.36-5,7-.29-2.86,1.35-5.13,3.5-7h1.5Z"/>
  <path class="cls-23" d="M682,1234c.34-2.75-.11-5.64,3-7,.82,3.11-2.53,3.62-2,6.5l-1,.5Z"/>
  <path class="cls-23" d="M728,1034c.66,1.36-1.39,2.63-1,3l-1-7c1.93-.2.7,2.26,1,3.5.16.68.98.45,1,.5Z"/>
  <path class="cls-23" d="M727,1050l-1-.5v-6c.16-.68.76-.39,1-.5,2.03,2.42.19,2.7,0,3.5-.22.93.06,2.38,0,3.5Z"/>
  <path class="cls-23" d="M724,1089c.03.99.04,2.01,0,3l-2-2.5c-.6-1.97,1.59-4,2-3.5.02.99-.03,2.01,0,3Z"/>
  <path class="cls-23" d="M727,996c-.16,2.3.11,4.69,0,7-1.65.25-.96-1.34-1-2.5-.05-1.5-.67-4.89,1-5.5-.05.31.02.67,0,1Z"/>
  <path class="cls-22" d="M631,1299c-1.82-.03-3.67.02-5.5,0l-.5-1c1.82.03,3.67-.02,5.5,0l.5,1Z"/>
  <path class="cls-22" d="M167,1225c.05-1.82-.03-3.67,0-5.5l1-.5c-.02,1.82.02,3.67,0,5.5l-1,.5Z"/>
  <path class="cls-22" d="M168,1194l-1-.5v-4.5c.88,1.78,1.25,2.16,1,5Z"/>
  <path class="cls-23" d="M658,972c-1.95-7.62-4.63-18.21-5-26,3.22,1.02,1.59,4.27,2,6.5.07.38.9.6,1,1,1.07,4.25,1.71,9.22,2.5,13.5.26,1.4,1.59,4.13-.5,5Z"/>
  <path class="cls-23" d="M691,1026h-1.5c-2.15-1.67-3.66-4.1-5.5-6l.5-1c1.78,1.26,4.1,2.44,5.5,4.5.14.21.48,1.81,1,2.5Z"/>
  <path class="cls-22" d="M546,1173l-.5,1c-3.17.01-6.34-.02-9.5,0l.5-1c3.16-.07,6.35.1,9.5,0Z"/>
  <path class="cls-23" d="M652,934c0-.99-.02-2.01,0-3s-.01-2.01,0-3h1v5.5l-1,.5Z"/>
  <path class="cls-25" d="M630,238c.83.17,11.42,8.46,13.5,10,54.73,40.45,80.97,102.79,100.5,164.5,1.16,3.66,2.55,11.42,4,14.5,8.54,37.23,12.51,76,15.05,113.91-1.02,4.75-1.04,9.11-.05,13.09-2.03,16.14-3.2,31.75-6,47.5-2.39,13.45-3.59,27.43-6,41-2.75,15.48-5.62,30.79-9,46-5.3,23.87-10.43,47.69-21,71-10.61,23.4-25.66,42.53-43,61-13.24,14.11-27.64,28.29-42.5,40.5-13.74,11.3-28.6,19.72-44,29-14.6,8.79-36.1,19.42-53,23-50.55,10.72-97.7-14.57-137-44-38.57-33.12-78.59-69.24-98.5-116.5-2.63-6.25-4.9-13.39-7-20-3.08-9.66-8.24-21.67-8-31-4.38-7.67-4.22-18.1-6-27-3.68-18.42-6.16-37.12-9-56-2.11-14.02-5.44-29.17-6-43.5-1.81-6.82-.83-9.94,2.29-15.54,5.85-10.49,11.68-19.71,18.39-29.58.15-3.02,1.25-3.99,3.32-2.89l2.49-.08c4.97,5.9,11.51,9.51,19.63,10.84,1.15,7.97,6.48,15.52,11.67,21.63.11.12.6-.08,1.21-.38l2.03-.61c4.09,6.13,8.77,11.71,14.06,16.73,2.24-.57,3.54.05,3.91,1.88,5.65,8.22,21.44,12.96,31.57,13.75,12.44.98,27.5-1.11,38.43-6.75-.09-.86.06-1.81.83-2.31,11.35-7.32,20.23-15.23,22.84-28.92.77.24,1.25.13,1.33-.77-2.06-16.08-4.12-29.31-14.49-43.31-28.61-38.66-92.55-27.58-113.73,13.09-5.06,6.01-16.35,2.98-17.78-3.78-.99-1.99.47-3.81,4.36-5.48,9.93-16.43,21.13-33.68,31.98-50.14,4.68-7.09,9.87-14.28,14.71-20.94-1.68-.67-2.03-1.82-1.05-3.44,2.22.69,3.85-.84,5.5-1,13.99-1.35,34.12,2.2,47,5,11.29,2.46,23.03,6.95,34,11,3.55,1.31,8.67,3.44,12,4,2.07.35,4.67-.85,6,1l4.5-2.5c-.16-1.61.23-3.46,0-5-.11-.71-1.62-6.05-2-7-.83-2.07-4.48-6.84-6.5-8.5-4.14-3.38-9.77-6.5-15-9-18.68-8.95-39.65-13.45-60.5-14l2-2.5c.29-3.29,5.72-9.94,8-13,10.77-14.45,20.89-29.67,32-44,35.76-46.1,78.98-93.87,134.5-114.5,20.24-7.36,45.11-9.44,67-4,2.25.56,5.09.54,7,1,3.08.75,6.06,2.3,9.5,3Z"/>
  <path class="cls-13" d="M715,1010c0,5.99,0,12.01,0,18l-3.5-1c-6.25-4.37-13.03-8.44-18.5-14.5-5.51-6.11-9.34-12.12-13-19-17.91-33.65-16.17-72.5-16-112.5,1.38-.38,1.42-9.06,1-10,1.88-3.15.69-7.03,1-10.5.03-.36.97-.64,1-1,.23-2.52-.41-5.69,0-8,.05-.29,1.7-1.43,1-3,8.35-8.94,17.77-16.97,26-26,10.13-11.1,22.63-26.63,29-39.5,2.9-.42,2.29,7.2,1.98,9.73-5.55,28.91-8.06,58.29-9.1,87.69-.72,43.04-1.36,87.31-.88,129.58Z"/>
  <path class="cls-10" d="M266,653c0,2.31-3.97,3.25-5.95,3.08-7.91-1.8-15.39-4.26-22.43-7.38-3.62,1.61-6.16,1.71-7.62.3-5.25-12.83-6.2-24.34-8-38.5-.05-.37-.97-.64-1-1-.58-6.4.43-13.51,0-20,.84-2.13,2.79-3.3,4-5,7.31-10.24,14.45-20.87,22-31,1.34-1.8,3.31-4,5-5.5.14,1.45-.22,3.12,0,4.5,1.9,12.08,3.45,24.81,5,37,2.72,21.39,5.63,42.4,9,63.5Z"/>
  <path class="cls-10" d="M807,600l-6.84-3.52c-.85,1.21-1.78,1.29-3.16.52-3.76,1.3-4.58,9.46-3,12l1.85,1.4c-3.07,13.82-7.87,27.58-18.87,37-3.43,2.94-13.76,10.89-14.98,3.59.6-1.27,1.5-15.42,2-18.5,4.75-29.26,9.57-58.75,12-89,.4-4.98,2.47-11.24,3-16,.27-2.38-.19-5.07,0-7.5l4,6.5c6.29,16.72,15.01,32.01,22,48,.47,1.07,1.64,2.98,2,4,1.63,4.66,1.03,10.65,1,16-.01,1.56.72,4.85-1,5.5Z"/>
  <path class="cls-24" d="M345,438c.16.03.79,1.81,3,1,1.74,3.93-3.52,5.84-4,7.5-1.57,5.47-7.35,11.57-11,17-9.46,14.08-17.65,28.79-28,43-1.44,1.97-3.92,4.52-4,7l-6,4.5-2.1,1.01c-8.41-6.65-4.93,1.72-1.04,5.84l-.86,2.15c-1.77.8-.42,2.46-2,4.5-7.13,9.19-12.2,18.79-18,29-.87,1.52-3.64,4.38-4,6-.41,1.82-.09,6.3,0,8.5-1.81-.7-.87-3.87-1-5.5-.56-7.03-2.46-14.36-3-21-.41-5.04.93-10.61-1-15,1.5-.82.72-2.02,1-3,.15-.52,5.96-6.56,7-8,16.74-23.16,33.4-46.34,50-70,2.16-3.08,4.69-7.18,7-10,.51-.62,3.23-3.43,3.5-3.5.84-.23,2.11.21,3,0,.4-.09.63-.95,1-1,2.11-.31,8.47-.34,10.5,0Z"/>
  <path class="cls-46" d="M726,950l-3-2.5c-1.08-4.91-4.19-8.25-3-14l-3-5.5c-.18,7.48.25,15.02,0,22.5-.28,8.58-.16,20-1,29-.88,9.42-.98,19.57-1,30.5-1.72-.65-.99-3.94-1-5.5-.54-71.38-3.97-145.17,9-212v-9.5c4.07-8.22,9.77-16.1,12-25.5l3-4.5c-1.7,16.79-4.27,33.03-6,49.5-2.55,24.28-3.83,48-5,73-1.1,23.48-2.51,50.43-1,74.5Z"/>
  <path class="cls-50" d="M797,597c.69-.79,1.47-.8,1-3,3.49-.57,5.25,3.73,9,3,.02.99-.03,2.01,0,3,.32,12.53-2.94,27.17-6,38.5-.96,3.57-1.63,7.43-3,11-2.39,6.24-6.16,11.57-10,17-8.67,12.27-16.95,18.96-30.5,24.5-.61.25-3.24,2.31-3.5,2l1-9.5c4.28-9.08,3.03-24.06,7-32.5,1.91,1.3,2.8,1.24,5,.5,5.7-1.93,13.9-9.95,17-15,4.02-6.54,5.83-12.47,8-19,1.06-3.2,1.62-4.87,2-8.5-1.74-1.38-.28-8.53.68-11.17.24-.67,1.45-.78,2.32-.83Z"/>
  <path class="cls-28" d="M449,453l-17.5-5c-11.28-5.03-22.82-8.25-34-11-17.61-4.32-41.86-7.09-61-4-.33.05-.56.78-1,1-1.12.55-2.04-.36-1.5-1.5.41-.86,2.3-1.99,3-3,.16-.23-.15-.78,0-1,1.92-2.73,4.7-5.13,5-8.5,1.61.55,2.1-.93,2.5-1,1.22-.22,2.78.22,4,0,13.21-2.32,25.75-2.35,39,0,4.71.84,9.41.93,14,2,10.42,2.43,23.23,7.16,33,13,4.89,2.92,11.96,8.98,14,15,.49,1.43.68,2.52.5,4Z"/>
  <path class="cls-33" d="M266,653c1.93,12.11,4.03,24.3,6,36.5.06.37,2.77,2.77-.5,2.5l-13-6c-12.41-8.66-23.39-21.05-28.5-35.5-.18-.52.14-1.15,0-1.5l3.5-1c.89-1.3,3.4-1.29,5-1,.38.07.61.91,1,1,1.78.4,2.18.34,4,1,4.55,1.65,8.47,2.87,13,4,1.38.34,2.51.88,3,1,2.49.59,4.1-1.4,6.5-1Z"/>
  <path class="cls-9" d="M234,682v17.5c-4.07,28.38-4.85,56.78-6,86.5l-2,5c.44-1.88-.25-2.28-1-3.5-1.46-2.39-2.21-5.25-3-8-.12-.42-2.19-2.35-3-2.5.22-6.13-.3-12.36,0-18.5.86-17.27,3.76-37.44,7-54,.83-4.25,2.58-9.58,3-13,.59-4.81-.43-10.57,0-15.5,1.26,1.78,3.29,3.95,5,6Z"/>
  <path class="cls-27" d="M763,554c-2.56-.77-1.9-2.54-2-4.5-.28-5.25.38-10.8,0-16-.03-.36-.97-.64-1-1-1.53-16.6-1.92-33.6-4-50s-5.95-33.53-9-50c-.35-1.89-.07-3.87,1-5.5,6.62,14.08,10.6,36.86,15,52.5,2.38,8.48,6.9,16.44,6,26s-1.79,19.46-3,29c-.79,6.25-2.21,13.23-3,19.5Z"/>
  <path class="cls-23" d="M651,904h2v1.5l-2,1.5c0-.99-.01-2.01,0-3Z"/>
  <path class="cls-23" d="M663,901c-2.68-.94-2.73-3.41-.5-5h.5v5Z"/>
  <path class="cls-23" d="M653,872c2.68.94,2.73,3.41.5,5h-.5v-5Z"/>
  <path class="cls-23" d="M664,881c-2.01-.53-2.24-2.12-2-4h2v4Z"/>
  <rect class="cls-23" x="715" y="1049" width="1" height="7"/>
  <path class="cls-23" d="M654,863c.41.16,1.37-.09,2,0l-1.5,3-.5-3Z"/>
  <path class="cls-48" d="M594,763c.59,2.66-.73,2.95-2,4.5-8.3,10.19-23.12,28.22-34.5,33.5-2.17,1.01-2.31,1.39-3.5,3-27.21,8.53-55.62,10.72-83.66,2.99l-2.34,1.01c-15.42-9.16-29.74-22.97-40-37.5-1.17-1.65-3.18-3.05-3-5.5l1.2-1.72c54.32,18.76,112.18,20.47,165.73-1.51l2.07,1.23Z"/>
  <path class="cls-21" d="M326,559c-3.65.15-6.67-10.19-7.01-13.75-.64-6.65,2.05-15.87,5.32-21.82,7.96-14.47,20.78-23.24,36.51-27.88,1.78-.53,13.71-2.35,14.6-1.95,2.47,1.11,1.48,5.17-2.19,4.44-1.46,1.23-2.87,1.88-4.23,1.96l.06,2.54c-24.54,23.75-18.25,82.37,23.98,78.54,29.15-10.01,31.72-46.88,17.47-69.96-2.97-2.57-4.14-4.94-3.5-7.11-3.21-2.14-.43-3.47,3.23-2.1,14.19,5.32,28.56,36.2,30.77,50.1l1,.5c-1.46,2.19-1.26,5.41-2,8-.16.56-1.84,1.44-2,2-.83,2.9-.93,2.1-2,4-3.56,6.33-6.01,8.29-11.5,12.5-3.37,2.59-4.05,3.89-8.5,5-17.38,8.5-40.54,7.52-58.25.77-3.57-1.36-10.42-4.45-11.75-7.77-1.36-.24-3.32.32-4.5,0-3.16-.87-13.73-15.55-15.5-18Z"/>
  <path class="cls-21" d="M696,562c-1.36,4.36-6.34,10.87-10.5,14-1.46,1.1-4.11,2.1-6,3-.96.46-3.12,1.85-3.5,2-19.35,11.84-40.53,11.12-62.33,6.7-2.51-.51-6.98-1.52-7.67-3.7-.05-.02.18-.84-.5-1-9.91-2.3-18.4-12.65-22.5-21.5-.82-1.78-2.61-4.34-3-6-.24-1.01.31-2.84,0-3.5-.4-4.15,2.66-11.47,4.71-15.82,5.47-11.62,12.3-23.64,22.65-31.47,2.74-2.07,16.36-10.22,15.02-2.92-19,11.78-20.18,36.77-16.39,56.63,1.97,2.26,2.97,4.45,3.01,6.57l2.4.2c10.96,21.49,37.29,22.86,50.93,2.39l2.67-.58c10.46-19.35,8.94-52.57-11.75-65.52-10.86-9.3,10.38-4.29,15.08-2.28,9.73,4.17,20.27,11.96,26.12,20.84,3.4,5.17,8.69,17.61,8.63,23.67-.02,2.64-2.82,11.56-4.08,14.42-.64,1.46-1.61,3.16-3.01,3.87Z"/>
  <path class="cls-23" d="M580,552c-.08-.16-1.85-1.82-2-2.5-.22-.99-.16-3.89,0-5,.06-.37.93-.62,1-1,1.39-7.74,2.34-14.36,5-22,11.82-25.3,38.5-41.44,65.5-37.5,3.44-1.13,9.05.98,13,2,9.79,2.51,21.83,7.62,30,14,2.16,1.69,3.77,5.08,6.5,5v2c3.68.36,5.84,6.81,8,9.5,1.83,2.28,4.56,4.24,6.5,6.5,2.43-.34,5.78.48,8,0,.71-.15,3.93-2.4,5-3,2.7-1.52,5.35-3.36,8-5,.7-.43,3.29-2.25,3.5-2-.23,1.7.34,3.94,0,5.5s-4,5.45-5,7c-1.56,2.42-1.12,3.17-3.5,4.5-1.84,1.03-4.04,4.7-6,6-.38.25-3.78,1.95-4,2-1.67.37-8.08-.42-8.5,0-.15,1.11.23,2.52,0,3.5-1.56,6.69-5.93,13.25-11,18-1.21,1.13-2.05,2.83-4,2.5.88-2.83,1.25-5.75,2-8.5.12-.44,1.92-2.62,2-3,.31-1.44-.27-3.49,0-5,.05-.28,1.59-1.05,1-3-.12-.41-.93-.63-1-1-.22-1.22.26-2.86,0-4-.58-2.5-2.01-5.59-3-8-3.56-8.66-7.47-13.82-14.5-19.5-4.49-3.63-10.47-5.78-15-9l-15.5-4c.34,1.1,1.61,2.29,2.5,3,.2.16.79-.16,1,0,3.86,3.01,7.96,7.34,10.5,11.5,1.15,1.88,3.17,5.76,4,8,1.43,3.85,1.42,7.15,2,11,.06.38.96.64,1,1,.93,8.99-.96,18.61-3,27l-5,8.5c-1.78,2.14-3.2.65-2.69-2.09,5.95-7.8,6.82-17.26,3.97-26.48,1.05-4.03.09-6.05-2.92-9.2.35-5.2-2.2-11.19-5.44-15.18-1.15-1.41-8.71-9.08-9.72-9.84-.56-.42-12.06-1.52-13.75-1.33-4.04.47-19.35,9.49-21.48,12.38-3.32,7.75-3.89,17.27-3.84,25.97-1.37,5.36-1.28,10.84-.34,16.43,2.83,2.34,5.43,8.61.21,7.34-.98-1.69-3.57-4.92-4-6.5-.23-.85.23-2.15,0-3-.12-.44-1.92-2.62-2-3-1.01-4.67.55-9.38-1-15-.2-.73,2.48-12.18,3-14,.38-1.33.62-1.92,1-3,.4-1.14.74-3.4,1-4,1.83-4.21,6.87-10.51,10.5-13.5.19-.16.79.17,1,0,.51-.41,2.88-2.68,2.5-3-2.41-.38-3.93,2.13-5.5,3-1.27.7-3.83,1.28-5,2-5.81,3.56-12.15,10.91-15.5,16.5-4.92,8.23-10.07,16.84-12,26l-3,4.5Z"/>
  <path class="cls-49" d="M441,552l-3-3.5c-1.08-6.23-4.28-13.12-7-19-2.37-5.11-7.43-12.55-11-17-3.15-3.93-7.77-6.08-11.5-9.5h-1c-.68.17-.39.76-.5,1,2.39,3.93-3.22,3.46-6.31,1.83-8.57-6.18-16-6.26-26.24-4.97-2.52,1.87-6.54,3.51-5.45-.85.72-.57,2.02-1.9,3-2.5,1.08-.66,1.83-.57,3-.5l-.5-2c-1.05-.6-1.53.9-2,1-2.64.57-5.76.35-9,1-12.8,2.56-25.86,10.62-33.5,21.5-2.24,3.19-6.05,8.76-7,12-.52,1.79-.61,5.03-1,7-.08.39-.95.63-1,1-.24,1.62-.24,5.38,0,7,.05.37.92.61,1,1,.18.93-.23,2.19,0,3,.36,1.25,3.33,8.57,4,9.5.38,2.71-.84,2.66-2.5,1-4.33-4.33-10.07-12.2-11.5-17.5-.41-1.53.72-3.26-1.5-4.5-1.28,1.93-1.34.11-2,0-4.53-.75-4.74-.38-9-3-3.52-2.17-5.77-4.51-8.5-8-1.73-2.22-4.01-5.03-5-7.5-.32-.78.53-2.21-1-3l3.5-3.5c1.89,2.28,4.13,3.38,6.5,5,1.3.88,2.07,1.21,3.5,2,.69.38,1.49,1.85,2,2,.63.18,1.41-.19,2,0,.41.13.63.93,1,1,.86.16,3.19.18,4,0,.36-.08.57-.8,1-1,.31-.14.78.13,1,0,2.56-1.52,5.5-6.74,6.5-9.5,22.99-30.17,66.83-39.12,98.5-18.5,10.88,7.08,20.8,22.34,24.5,34.5,1.3,4.25,1.32,8.46,2,13,.06.38.96.64,1,1,.31,2.99.37,7.04-1,9.5Z"/>
  <path class="cls-36" d="M596,753c-.24,2.54-2.1,4.23-5.6,5.06-36.95,16.82-78.57,18.76-119.05,12.98-13.06-1.86-28.59-5.99-41.13-10.11-2.74-.9-10.36-4.86-9.22-7.94l6-.5c23.61-1.89,46.59-2.69,70.5-1.5.35.02.65.98,1,1,20.39.89,45.93-4.05,64,0,2.19.49,27.07.78,28.5.5,2.13-.42,2.98-1.04,5,.5Z"/>
  <path class="cls-51" d="M464,655c-.98,2.5.69,11.79,2.01,13.88l15.51,14.61c6.04,5.22,11.24,15-.52,12.51-1.98-1.3-6.14-2.6-8.5-4-6.62-3.91-15.24-11.12-19.5-17.5-1.11-1.66-1.52-4.33-2-6-.12-.4-.92-.62-1-1-.24-1.18.22-2.78,0-4-.07-.38-.91-.61-1-1-.58-2.48.94-3.6,1-4,.45-3.06-.13-5.93,1-9,2.48-6.73,9.04-13.13,13-19,10.36-15.35,11.4-28.76,14-46,1.31-8.72.85-18.07,2-25,.23-1.4.18-4.53,0-6-1.09-8.74-1.25-18.46-3-27-2.78-13.61-7.84-27.8-15-41l-1-4.5c2.74-.27,5.43,1.43,7,3.5,9.25,12.22,14.79,29.08,18,43,1.74,7.57,1.99,15.08,3,23,2.49,19.61,1.06,40.78-3,59-2.8,12.55-5.94,20.06-13,31-3.76,5.82-6.27,7.8-9,14.5Z"/>
  <path class="cls-32" d="M421,753c3.4,2.33,8.25,5.84,12.5,7,6.85,1.87,13.3,3.32,20,5,.4.1.62.92,1,1,24.76,5.14,52.23,7.81,79,5,16.85-1.77,32.83-6.23,49-11,.56-.17,1.44-1.84,2-2,4.4-1.27,8.02-2.91,11.5-5,2.37-1.42,5.57-2.55,7.5-4,3.53-2.65,5.71-8.04,9-10,.22-.13.69.14,1,0,.43-.2.64-.92,1-1,2.71-.61,5.21.53,7.5,1l1,6.5c-.88.67-1.64,1.95-2.5,2.5-1.68,1.08-5.38,1.91-7,3-1.05.71-1.94,2.29-3,3-5.14,3.47-10.71,5.76-16.5,9-1.17.65-2.56.97-3.5,2-8.74,2.77-18.09,5.78-27,8-11.38,2.83-22.83,4.88-35,6-4.84.45-14.77,1.75-19,1-10.87-1.94-25.83-.57-38-3-14.56-2.91-28.77-6.14-43-11-1.15-.39-3.18-.85-3.5-1-8.18-3.85-15.75-10.03-23.5-15-1.06-.68-3.98-1.32-5-2-2.09-1.39-4.2-3.97-3.5-6.5.07-.24,3.26-3.43,3.5-3.5.77-.21,6.23-.21,7,0,.27.07,2.99,2.88,3.5,3.5,4.15,5.08,6.56,7.86,12.5,11.5.44.27,1.24-.18,1.5,0Z"/>
  <path class="cls-45" d="M734,450c-2.04.26-3.68-.19-5.5-1-8.07-3.56-17.59-8.73-26-11-3.97-1.07-9.93-.53-15-1-12.32-1.14-24.15-1.86-37-1-11.56.78-23.2,4.23-34,7-7.14,1.84-13.32,4.62-20,7-7.32,2.6-13.84,3.55-21,5-.39.08-.63.94-1,1-3.92.58-7.08-.49-9.5-3.5.34-2.42-.49-5.8,0-8,.07-.33,2.63-5.45,3-6,4.31-6.48,19.1-15.41,26.5-18.5,2.44-1.02,6.53-2.26,9-3,24.5-7.34,63.44-12.51,89-4,17.97,5.99,25.21,12.37,36.5,27.5,2.05,2.74,5.2,5.59,5,9.5Z"/>
  <path class="cls-40" d="M464,655c-.24,2.97-.27,5.25,2.5,7,6.28,3.96,18.35,10.09,25,12,.56.16,1.44,1.83,2,2,1.39.41,3.55.64,5,1,.4.1.62.93,1,1,4.83.86,10.04-.47,14-2,4.44-1.71,7.25-2.82,12-4,.4-.1.62-.93,1-1,1.51-.27,3.58.32,5,0,.4-.09.68-1.36,2-1,3.38.93,5.29.41,8,1,.26.06,2.43,1.55,3,2l.5,3c-.1,2.58-1.97,2.6-3.36.71-5.91-.14-10.68.15-15.3,4.14-3.69,3.18-2.82,9.49,2.29,6.36,3.13-2.32,10.59-5.15,13.37-2.21.29,1.63,3.33.22,1.5,3-.87,1.33-4.9,4.75-6,5-1.16.26-2.83-.25-4,0-2.52.55-7.27,5.26-10,6-4.69,1.28-10.15,2.03-15,3-.39.08-.63.95-1,1-2.14.31-7.86.31-10,0-.66-.1-4.1-1.75-5-2-1.78-.49-4.45-.57-6-1-.8-.22-4.7-3.48-5.5-4l6-2.5c-.79-1.6-2.09-2.73-3-4-3.72-5.16-8.08-8.37-12.5-12.5-1.74-1.63-6.54-5.89-7.5-7.5-.13-.22.14-.69,0-1-.2-.43-.92-.64-1-1-.26-1.15.21-2.76,0-4-.06-.38-1-.67-1-1s.94-.62,1-1c.3-1.81-.4-4.38,0-6,.17-.68.98-.45,1-.5Z"/>
  <path class="cls-5" d="M554,804c-5.08,6.91-19.6,11.96-27.5,14-5.02,1.3-8.79.61-14,1-.36.03-.64.97-1,1-5.95.56-10.81-1.22-16-2s-10.03-.92-15-3c-4.05-1.69-8.82-4.81-12.5-7-.11-2.92-.72-3.22,2.5-3,1.59.11,3.4.6,5,1,21.62,5.39,45.89,5.16,67-1,2.72-.79,4.91-1.6,7.5-2.5,2.15-.75,3.14-.82,4,1.5Z"/>
  <path class="cls-44" d="M676,581l.5,1c-12.16,9.61-29.3,13.16-45,12-.36-.03-.64-.97-1-1-10.02-.93-13.94-1.16-23-6-.61-.33-2.2-.82-3-1l1.5-2c2.98,1.14,6.28,1.36,9.5,2,6.21,1.24,12.02,1.01,18,2,1.04.17,2.77.72,4,1,7.86,1.76,23.05-3.96,31-6,2.27-.58,5.33-1.16,7.5-2Z"/>
  <path class="cls-30" d="M416,584l-3.5,4c-14.43,4.51-30.04,7.01-45,3-5.77-1.55-13.62-4.62-19-8-1.14-.72-2.44-2.32-4-3l1.5-3c2.75.49,6.05,2.71,8.5,4,7.44,3.91,12.18,4.7,20,6,.38.06.67,1,1,1,.25,0,.69-1.36,2-1,4.7,1.3,10.65,1.36,16,1,2.72-.18,8.13-1.49,11-2,4-.71,7.65-1.04,11.5-2Z"/>
  <path class="cls-49" d="M545,676c.44.3,1.9,3.01,3,3.5-1.48,2.63-2.81,4.45-6,5.5-2.75.91-6.7,1.24-9.5,2-.46.13-2.36,1.72-3,2-1.61.71-3.17,1.26-5,1-5.73-5.62-.19-10.93,5-14,1.85.83,3.7-.96,4-1,1.85-.27,7.22-.31,9,0,.36.06.57.83,1,1,.54.21,1.26-.16,1.5,0Z"/>
  <path class="cls-2" d="M797,597c-.43.5-2.83,10.37-3,12-3.02.57-1.98-1.53-2-3.5-.05-4.02.34-5.68,1-9,.2-1.03-.13-2.38,0-3.5l4,4Z"/>
  <path class="cls-26" d="M407,504l5,5.5c2.01,5.08,5.6,9.74,7,15,1.07,4.02.56,7.88,1,12,.04.36.94.62,1,1,.53,3.57-.96,4.84,0,8,.11.35-.78,6.05-1,7-.09.39-.9.61-1,1-.22.88.24,2.17,0,3-.98,3.42-5.63,11.96-8,15-4.5,5.78-11.26,8.78-17.5,11.5-13.82,1.4-23.67-2.83-32.5-13.5-.47-2.24-2.05-3.96-3-6-.6-1.29-2.7-4.92-3-6-.23-.83.2-2.09,0-3-.08-.39-.94-.63-1-1-2.67-16.21-.65-30.92,7-45,2.42-3.38,4.54-5.77,8-8.5.73,2.49,3.81-.85,4.5-1,3.94-.85,8.12.14,13-1,3-.7,4,1.24,6,2,.59.22,1.44-.23,2,0,2.16.9,4.82,3.04,7,4,1.53.68,3.08,1.26,5,1,.68-.16.39-.76.5-1Z"/>
  <path class="cls-47" d="M609,565c3.17-1.82-1.79-5.73-2-6.5-.65-2.37-1.76-7.31,0-9l-2-3c2.24-2.37,2.53-6.82,2-10s.67-4.31,1-7c.46-3.71-.23-5.14,1-9,.19-.59-.18-1.37,0-2,.16-.56,1.84-1.44,2-2,.18-.62-.18-1.38,0-2,.45-1.56,8.73-4.57,8-7.5,3.47.71,5.73-2.89,8.5-4,1.05-.42,3.73-.69,5-1,.4-.1.62-.93,1-1,2.02-.36,6.77-.19,9,0,.36.03.63.96,1,1,2.07.23,4.39-.16,6.5,0,.19.19-.26,1.03,0,1.5,1.64,2.95,7.91,6.85,10,10,2.75,4.15,6.41,11.02,5,15,2.61,1.74,2.69,3.84,4,6-2.41,3.72,1.63,9.94,1,12-.99,3.25-.98,3.39,0,7-1.41,3.27-3.07,6.76-4,10-.26.92-3.91,2.52-1,3.5-3.59,6.59-9.51,10.65-15.5,15-5.75,1.57-11.37,2.5-18,2-1.17-1.53-4.39-1.35-6-2-4.98-2-11.71-9.07-14.5-13.5-.75-1.19-1.32-2.32-2-3.5Z"/>
  <path class="cls-4" d="M722,440c-1.93.69-2.67-1.77-3.5-2-3.07-.87-6.14-2.05-9-3-15.76-5.26-46.71-7.07-64-4-15.29,2.72-29.2,6.11-44,11-7.84,2.59-18.4,7.85-26,9-1.68.25-5.98.34-6.5-1.5l2-6c3.51-2.66,7.06-8.22,10.5-10.5,5.36-3.55,12.93-6.7,19-9,5.22-1.98,9.81-3.68,15-5,25.09-6.36,55.05-7.36,80,0,4.41,2.82,10.06,4.83,14,8,4.32,3.47,8.68,8.89,12.5,13Z"/>
  <path class="cls-29" d="M392,515l.5-1c1.4,3.17,4.25,3.48,6.5,6.5.54.73,2.54,3.97,3,5,.23.51-.19,1.34,0,2,.16.56,1.85,1.45,2,2,.37,1.33.35,17.39,0,19-.24,1.12-2.33,3.04-3,4-.17.24.15.8,0,1-.86,1.14-5.49,5.9-6.5,6.5-.22.13-.69-.14-1,0-.43.2-.64.92-1,1-3.54.79-6.52-1.5-10-1-3.49-3.64-8.92-5.39-8.5-11h-2c-.25-7.1-1.04-12.11,0-18.5l3-5.5,2.09-.17c6.46,6.32,16.63,2.06,13.4-7.66l1.5-2.17Z"/>
  <path class="cls-38" d="M392,515c.53,2.05.91,3.26,1,5.5.11,2.74-.37,4.18-1,6.5-1.89-.73-2.62,1.75-3.5,2-.63.18-1.41-.19-2,0-.41.13-.62.91-1,1-2.6.61-4.36-1.57-7-1-.93-1.24-3.2-2.53-3.5-4-.15-.77.17-1.75,0-2.5-.08-.37-1.59-1.04-1-3,1.5-.82.72-2.02,1-3,.18-.62,4.42-4.7,5.5-4.5,4.09-2.91,8.1.09,11.5,3Z"/>
  <path class="cls-43" d="M619,526l1.91-.98c5.26,7.18,14.08,2.35,11.87-5.85l1.22-2.18.5-1,3,2,4-1c2.03,2.09,4.63,2.98,6.5,5.5.15.21-.16.77,0,1,.77,1.11,2.65,2.75,3,4,.23.83-.2,2.09,0,3,.09.39.95.63,1,1,.27,1.86-.3,4.18,0,6,.06.38,1,.67,1,1s-.94.62-1,1c-.3,1.82.27,4.14,0,6-.05.37-.91.61-1,1-.35,1.61.02,3.28-1,5-.8,1.35-3.26,2.22-3,4-1.4.89-3.27,2.77-4.5,3.5-.19.12-1.88.97-2,1-1.15.26-2.79-.23-4,0-.38.07-.62.93-1,1-3.35.61-4.48-.59-7-2-.27-.15-.78.14-1,0-1.47-.94-1.28-2.18-1.5-2.5-2.03-2.88-2.8-1.8-4-6-.1-.35-2.76-2.89-3-4-.31-1.43.25-3.47,0-5-.06-.38-1-.67-1-1,0-.17,1.6-1.03,1-3-1.49-4.91.39-6.4-1-10l1-1.5Z"/>
  <path class="cls-14" d="M634,517c1.17,1.91,1.46,5.47,1,7.5-.08.36-.8.57-1,1-.14.31.13.78,0,1-.28.47-3.26,3.43-3.5,3.5-.98.28-2.18-.5-3,1l-4-1-4.5-4c-2.16-3.58-1.14-9.84,2.5-12,.22-.13.69.14,1,0,.43-.2.64-.92,1-1,1.67-.37,4.16.26,6,0l4.5,4Z"/>
</svg>